<?xml version="1.0" encoding="UTF-8" standalone="no"?>
<svg
   width="38.402966"
   height="38.533905"
   viewBox="0 0 38.402966 38.533905"
   fill="none"
   version="1.1"
   id="svg2"
   xml:space="preserve"
   xmlns="http://www.w3.org/2000/svg"
   xmlns:svg="http://www.w3.org/2000/svg"><defs
     id="defs2"><clipPath
       id="clip0_1_276"><rect
         y="0.56201202"
         width="39.384899"
         height="39.384899"
         fill="#ffffff"
         id="rect2"
         d="M 0.38085938,0.94335938 H 39.003906 V 39.566406 H 0.38085938 Z"
         x="0" /></clipPath></defs><g
     id="g3"
     transform="matrix(1.3972615,0,0,1.3972615,65.038176,-13.088355)"><g
       clip-path="url(#clip0_1_276)"
       id="g2"
       transform="translate(-52.939729,3.2472325)"><path
         d="m 20.135041,6.119955 c 1.806125,-0.00437 3.595318,0.3492538 5.263672,1.0410156 1.668403,0.6917414 3.184351,1.7076307 4.458985,2.9902344 1.279177,1.273457 2.292336,2.787218 2.982422,4.455078 0.69011,1.667921 1.042559,3.455798 1.037109,5.261719 -0.0034,7.571667 -6.170901,13.738281 -13.742188,13.738281 h -0.0059 c -2.294036,-6.81e-4 -4.551557,-0.575025 -6.566406,-1.671875 L 13.429963,31.862142 6.4358227,33.69808 8.3069165,26.864096 8.2287915,26.727377 C 7.0235363,24.639006 6.3894192,22.26955 6.392854,19.858236 6.3966767,12.285324 12.563206,6.1199561 20.135041,6.119955 Z m 0.0059,1.6230469 c -6.688433,0 -12.1217571,5.4329681 -12.1250001,12.1152341 -0.00222,2.281473 0.639861,4.515614 1.8535156,6.447266 l 0.1914065,0.304687 -1.3164065,4.804688 4.9238285,-1.291016 0.294922,0.173828 c 1.868014,1.104766 3.997745,1.687294 6.167968,1.6875 h 0.0039 c 6.682786,0 12.119141,-5.434218 12.119141,-12.117187 8.26e-4,-1.591538 -0.311503,-3.166004 -0.919922,-4.636719 -0.608256,-1.470676 -1.500078,-2.809592 -2.625,-3.935547 C 27.584348,10.169792 26.247667,9.2764969 24.77762,8.66683 23.307393,8.0570886 21.732513,7.7436316 20.140901,7.7430019 Z m -5.003906,5.9785161 c 0.233204,0 0.460792,5.86e-4 0.660156,0.0098 0.205388,0.0089 0.197057,-0.0093 0.24414,0.02539 0.03865,0.0285 0.115137,0.108436 0.214844,0.347656 0.293566,0.704915 0.969613,2.382586 1.09961,2.642578 0.06009,0.120244 0.06927,0.197398 0.0293,0.277344 -0.124972,0.249945 -0.166685,0.353497 -0.302734,0.511719 -0.182661,0.212309 -0.365721,0.45565 -0.507812,0.595703 -0.185573,0.185573 -0.556026,0.588652 -0.214844,1.179687 0.21191,0.367096 0.948227,1.566298 2.037109,2.53711 1.397504,1.246585 2.672266,1.68173 2.921875,1.80664 0.474129,0.237401 0.890002,0.199134 1.220703,-0.179687 0.208013,-0.238382 0.891277,-1.037759 1.146485,-1.421875 0.07462,-0.112317 0.0569,-0.134405 0.345703,-0.0293 0.252385,0.09188 2.02417,0.956323 2.373047,1.130859 0.369393,0.185482 0.521445,0.267513 0.521484,0.267578 0,0 0.02916,0.611026 -0.236328,1.353516 -0.235627,0.658971 -1.515631,1.34538 -2.082031,1.429687 -0.576947,0.08558 -1.280552,0.119639 -2.052735,-0.125 -0.670253,-0.208412 -1.329689,-0.453503 -1.974609,-0.732421 -3.361926,-1.451532 -5.512701,-4.722149 -5.875,-5.205079 -0.178237,-0.237717 -1.363281,-1.822095 -1.363281,-3.419921 0,-1.536781 0.758076,-2.275328 1.132812,-2.683594 0.2446,-0.266569 0.522346,-0.318359 0.66211,-0.318359 z"
         fill="#ffffff"
         id="path2" /></g></g></svg>
