<?xml version="1.0" encoding="UTF-8" standalone="no"?>
<!-- Created with Inkscape (http://www.inkscape.org/) -->

<svg
   width="86.964729mm"
   height="30.74431mm"
   viewBox="0 0 86.964727 30.744311"
   version="1.1"
   id="svg1"
   xmlns="http://www.w3.org/2000/svg"
   xmlns:svg="http://www.w3.org/2000/svg">
  <defs
     id="defs1" />
  <g
     id="layer1"
     transform="translate(222.45107,-154.58203)">
    <path
       style="-inkscape-font-specification:'Bebas Neue';opacity:0.95;fill:#ffffff;fill-opacity:0.301961;stroke-linecap:round;stroke-linejoin:round"
       d="m -215.29102,154.58203 c -2.28317,0 -4.04814,0.66108 -5.26171,1.99024 -1.21306,1.2997 -1.8125,3.14302 -1.8125,5.50781 0,1.7411 0.38498,3.31745 1.1582,4.7207 a 0.13251324,0.13251324 0 0 0 0.002,0.002 c 0.77374,1.37553 2.1231,2.9063 4.04883,4.60547 1.51817,1.32138 2.55392,2.45886 3.10547,3.39649 a 0.13251324,0.13251324 0 0 0 0.002,0.002 c 0.55092,0.90901 0.82813,1.96971 0.82813,3.19141 0,1.02632 -0.21174,1.75325 -0.60352,2.19726 a 0.13251324,0.13251324 0 0 0 0,0.002 c -0.36629,0.41861 -0.91275,0.63086 -1.67773,0.63085 -0.77799,1e-5 -1.33476,-0.22542 -1.70899,-0.67187 -0.37423,-0.44645 -0.57226,-1.13317 -0.57226,-2.07422 v -2.03125 a 0.13251324,0.13251324 0 0 0 -0.13282,-0.13281 h -4.40234 a 0.13251324,0.13251324 0 0 0 -0.13281,0.13281 v 1.69336 c 0,2.42019 0.58545,4.30432 1.76953,5.63281 a 0.13251324,0.13251324 0 0 0 0.002,0.002 c 1.18601,1.30171 2.93809,1.94726 5.22071,1.94726 2.30992,0 4.08884,-0.66007 5.30273,-1.98828 l 0.002,-0.002 c 1.24049,-1.32823 1.85352,-3.22972 1.85352,-5.67774 0,-1.88006 -0.36991,-3.52504 -1.11524,-4.92968 -0.74602,-1.40598 -2.09814,-2.9527 -4.05273,-4.65235 -1.51836,-1.32154 -2.56798,-2.44365 -3.14844,-3.35547 v -0.002 c -0.55207,-0.91156 -0.82617,-1.88699 -0.82617,-2.93555 0,-0.92731 0.19021,-1.60373 0.55078,-2.04297 0.36057,-0.43923 0.89532,-0.66015 1.64453,-0.66015 0.73419,0 1.26428,0.22437 1.63282,0.67187 a 0.13251324,0.13251324 0 0 0 0.004,0.002 c 0.36269,0.41449 0.5586,1.11641 0.5586,2.11523 v 1.52344 a 0.13251324,0.13251324 0 0 0 0.13281,0.13281 h 4.40234 a 0.13251324,0.13251324 0 0 0 0.13281,-0.13281 v -1.22656 c 0,-2.41901 -0.58366,-4.29118 -1.76757,-5.5918 -1.15723,-1.33081 -2.88341,-1.99219 -5.13868,-1.99219 z m 17.84375,0 c -2.31107,0 -4.1038,0.65974 -5.3457,1.98828 -1.24103,1.32761 -1.85547,3.20243 -1.85547,5.59571 v 15.57812 c 0,2.39328 0.61444,4.26614 1.85547,5.59375 1.2419,1.32855 3.03463,1.98828 5.3457,1.98828 2.31109,0 4.10381,-0.65973 5.34571,-1.98828 1.24103,-1.32761 1.85742,-3.20047 1.85742,-5.59375 v -15.57812 c 0,-2.39328 -0.61639,-4.2681 -1.85742,-5.59571 -1.2419,-1.32854 -3.03462,-1.98828 -5.34571,-1.98828 z m -17.84375,0.26563 c 2.20384,0 3.83696,0.63476 4.9375,1.90039 a 0.13251324,0.13251324 0 0 0 0.002,0.004 c 1.12913,1.2393 1.70117,3.03648 1.70117,5.41407 v 1.09375 h -4.13672 v -1.39063 c 0,-1.03131 -0.1971,-1.79641 -0.62305,-2.28516 -3.8e-4,-4.6e-4 -0.002,4.7e-4 -0.002,0 -0.42167,-0.51111 -1.04684,-0.76953 -1.83594,-0.76953 -0.80301,0 -1.43406,0.25161 -1.84961,0.75782 -0.41554,0.5062 -0.61132,1.24736 -0.61132,2.21093 0,1.0957 0.28911,2.12557 0.86523,3.07617 a 0.13251324,0.13251324 0 0 0 0.002,0.002 c 0.60499,0.95069 1.67005,2.08312 3.19922,3.41406 a 0.13251324,0.13251324 0 0 0 0,0.002 c 1.94008,1.68703 3.27067,3.21638 3.99219,4.57618 0.72223,1.36112 1.08594,2.95942 1.08594,4.80468 0,2.40503 -0.59974,4.22992 -1.78516,5.49805 a 0.13251324,0.13251324 0 0 0 -0.002,0.002 c -1.15674,1.26691 -2.84651,1.9043 -5.10742,1.9043 -2.23173,0 -3.89526,-0.62437 -5.02344,-1.86133 l -0.002,-0.002 c -1.12901,-1.26788 -1.70118,-3.07869 -1.70118,-5.45508 v -1.56055 h 4.13868 v 1.89844 c 0,0.97807 0.2027,1.73104 0.63281,2.24414 0.4301,0.51311 1.08143,0.76758 1.91211,0.76758 0.81546,0 1.45301,-0.23815 1.87695,-0.72266 0.45489,-0.51553 0.66797,-1.31091 0.66797,-2.37304 0,-1.26116 -0.2879,-2.37287 -0.86524,-3.32618 v -0.002 c -0.57745,-0.98127 -1.6308,-2.12983 -3.16015,-3.46094 h 0.002 c -1.91203,-1.68708 -3.24378,-3.20159 -3.99414,-4.53515 v -0.002 c -0.7502,-1.36213 -1.12695,-2.89045 -1.12695,-4.59179 0,-2.32009 0.58653,-4.08783 1.74414,-5.32813 1.15709,-1.26728 2.83402,-1.90429 5.0664,-1.90429 z m 17.84375,0 c 2.26092,0 3.96714,0.63639 5.15235,1.90429 1.18608,1.26883 1.78515,3.06601 1.78515,5.41407 v 15.57812 c 0,2.34806 -0.59907,4.14328 -1.78515,5.41211 -1.18521,1.26791 -2.89143,1.90625 -5.15235,1.90625 -2.26091,0 -3.96712,-0.63834 -5.15234,-1.90625 -1.18608,-1.26883 -1.78516,-3.06405 -1.78516,-5.41211 v -15.57812 c 0,-2.34806 0.59908,-4.14524 1.78516,-5.41407 1.18522,-1.2679 2.89143,-1.90429 5.15234,-1.90429 z m 11.79102,0.1582 a 0.13251324,0.13251324 0 0 0 -0.13281,0.13281 v 29.63281 a 0.13251324,0.13251324 0 0 0 0.13281,0.13282 h 7.32227 c 2.33684,0 4.12793,-0.60254 5.34375,-1.81836 1.24296,-1.24297 1.85937,-3.03235 1.85937,-5.3418 v -2.54102 c 0,-1.68045 -0.29128,-3.05073 -0.88476,-4.10742 -0.56636,-1.00839 -1.43016,-1.70428 -2.53516,-2.11914 0.96558,-0.43881 1.70676,-1.11411 2.17578,-2.05078 0.52157,-0.98519 0.77734,-2.24839 0.77734,-3.78711 v -1.18555 c 0,-2.33522 -0.55595,-4.08134 -1.68945,-5.21484 -1.13431,-1.16256 -2.92292,-1.73242 -5.3418,-1.73242 z m 18.68945,0 a 0.13251324,0.13251324 0 0 0 -0.13281,0.13281 v 29.63281 a 0.13251324,0.13251324 0 0 0 0.13281,0.13282 h 4.65625 a 0.13251324,0.13251324 0 0 0 0.13282,-0.13282 v -12.56836 h 1.47656 c 1.05036,10e-6 1.74906,0.2604 2.13867,0.75391 a 0.13251324,0.13251324 0 0 0 0.004,0.004 c 0.41614,0.49417 0.64453,1.41005 0.64453,2.75 v 5.41992 c 0,1.10293 0.0275,1.86448 0.0859,2.30273 0.0579,0.43404 0.17383,0.89391 0.3457,1.38086 a 0.13251324,0.13251324 0 0 0 0.125,0.0899 h 4.74219 a 0.13251324,0.13251324 0 0 0 0.12109,-0.1875 c -0.22076,-0.49677 -0.3592,-0.99083 -0.41406,-1.48438 -0.0557,-0.52899 -0.084,-1.21682 -0.084,-2.06055 v -5.20703 c 0,-1.76031 -0.23985,-3.17279 -0.73047,-4.24218 -0.4422,-1.02259 -1.23403,-1.70206 -2.30468,-2.06836 0.9669,-0.42712 1.72148,-1.10144 2.21679,-2.05078 0.52124,-0.99904 0.77735,-2.27739 0.77735,-3.83008 v -1.82032 c 0,-2.33522 -0.55791,-4.08134 -1.69141,-5.21484 -1.13431,-1.16256 -2.92292,-1.73242 -5.3418,-1.73242 z m 18.64844,0 a 0.13251324,0.13251324 0 0 0 -0.13281,0.13281 v 29.63281 a 0.13251324,0.13251324 0 0 0 0.13281,0.13282 h 12.69922 a 0.13251324,0.13251324 0 0 0 0.13281,-0.13282 v -4.23437 a 0.13251324,0.13251324 0 0 0 -0.13281,-0.13281 h -7.91016 v -8.83594 h 6.25977 a 0.13251324,0.13251324 0 0 0 0.13086,-0.13281 v -4.23243 a 0.13251324,0.13251324 0 0 0 -0.13086,-0.13281 h -6.25977 v -7.5664 h 7.91016 a 0.13251324,0.13251324 0 0 0 0.13281,-0.13282 v -4.23242 a 0.13251324,0.13251324 0 0 0 -0.13281,-0.13281 z m -37.20703,0.26367 h 6.89648 c 2.37811,0 4.08722,0.55986 5.1543,1.6543 1.06784,1.06783 1.61328,2.73608 1.61328,5.02929 v 1.18555 c 0,1.50927 -0.25362,2.73014 -0.74804,3.66406 a 0.13251324,0.13251324 0 0 0 0,0.002 c -0.46654,0.93306 -1.18771,1.59921 -2.17774,2.01172 a 0.13251324,0.13251324 0 0 0 -0.0801,0.12109 v 0.0859 a 0.13251324,0.13251324 0 0 0 0.0898,0.125 c 1.13017,0.38591 1.96566,1.07459 2.52929,2.07812 0.56363,1.00354 0.85157,2.3268 0.85157,3.97656 v 2.54102 c 0,2.26255 -0.59712,3.97211 -1.78125,5.15625 -1.15485,1.15485 -2.86466,1.73828 -5.15625,1.73828 h -7.19141 z m 18.69141,0 h 6.76757 c 2.37811,0 4.08722,0.55986 5.1543,1.6543 a 0.13251324,0.13251324 0 0 0 0.002,0 c 1.06784,1.06783 1.61133,2.73608 1.61133,5.02929 v 1.82032 c 0,1.52352 -0.25133,2.75873 -0.74609,3.70703 -0.49477,0.9483 -1.22943,1.61324 -2.21875,2.01172 a 0.13251324,0.13251324 0 0 0 -0.084,0.12304 v 0.0859 a 0.13251324,0.13251324 0 0 0 0.0957,0.12695 c 1.09765,0.3293 1.84945,0.98792 2.28711,2 a 0.13251324,0.13251324 0 0 0 0,0.002 c 0.46805,1.01871 0.70898,2.39709 0.70898,4.13476 v 5.20703 c 0,0.84962 0.0268,1.54641 0.084,2.08985 0.0512,0.46049 0.1993,0.91884 0.38476,1.37695 h -4.4668 c -0.14882,-0.43769 -0.25916,-0.85488 -0.31054,-1.24023 -0.0545,-0.40842 -0.084,-1.16918 -0.084,-2.26758 v -5.41992 c 0,-1.36939 -0.22202,-2.34165 -0.70898,-2.91992 -0.45747,-0.57668 -1.25131,-0.85157 -2.34375,-0.85157 h -1.60938 a 0.13251324,0.13251324 0 0 0 -0.13281,0.13086 v 12.56836 h -4.39062 z m 18.64648,0 h 12.43555 v 3.96875 h -7.91016 a 0.13251324,0.13251324 0 0 0 -0.13281,0.13281 v 7.83203 a 0.13251324,0.13251324 0 0 0 0.13281,0.13282 h 6.25977 v 3.96679 h -6.25977 a 0.13251324,0.13251324 0 0 0 -0.13281,0.13282 v 9.10156 a 0.13251324,0.13251324 0 0 0 0.13281,0.13281 h 7.91016 v 3.96875 h -12.43555 z m -49.25977,3.54492 c -0.83106,0 -1.48232,0.25903 -1.9121,0.7793 -0.42979,0.52027 -0.63282,1.28348 -0.63282,2.27539 v 16.17188 c 0,0.99191 0.20303,1.75316 0.63282,2.27343 0.42978,0.52028 1.08104,0.7793 1.9121,0.7793 0.83107,0 1.48232,-0.25902 1.91211,-0.7793 0.42979,-0.52027 0.63282,-1.28152 0.63282,-2.27343 v -16.17188 c 0,-0.99191 -0.20303,-1.75512 -0.63282,-2.27539 -0.42979,-0.52027 -1.08104,-0.7793 -1.91211,-0.7793 z m 0,0.26563 c 0.77761,0 1.33249,0.22824 1.70704,0.68164 0.37454,0.45339 0.57421,1.152 0.57421,2.10742 v 16.17188 c 0,0.95542 -0.19967,1.65207 -0.57421,2.10546 -0.37455,0.4534 -0.92943,0.68165 -1.70704,0.68164 -0.7776,10e-6 -1.33248,-0.22824 -1.70703,-0.68164 -0.37454,-0.45339 -0.57226,-1.15004 -0.57226,-2.10546 v -16.17188 c 0,-0.95542 0.19772,-1.65403 0.57226,-2.10742 0.37455,-0.4534 0.92943,-0.68164 1.70703,-0.68164 z M -181,159.23828 a 0.13251324,0.13251324 0 0 0 -0.13281,0.13281 v 7.83203 A 0.13251324,0.13251324 0 0 0 -181,167.33594 h 1.82031 c 0.95306,0 1.68524,-0.24802 2.16797,-0.75977 l 0.002,-0.002 c 0.5153,-0.51668 0.75586,-1.35756 0.75586,-2.50391 v -1.65039 c 0,-1.08789 -0.19781,-1.89489 -0.62304,-2.41211 -0.39598,-0.51531 -1.03833,-0.76953 -1.88086,-0.76953 z m 18.68945,0 a 0.13251324,0.13251324 0 0 0 -0.13281,0.13281 v 8.4668 a 0.13251324,0.13251324 0 0 0 0.13281,0.13281 h 1.69336 c 0.95229,0 1.68522,-0.24884 2.16797,-0.75976 0.51652,-0.51652 0.75781,-1.3582 0.75781,-2.50586 v -2.28516 c 0,-1.08685 -0.19474,-1.89288 -0.61914,-2.41015 -3.5e-4,-4.6e-4 -0.002,4.5e-4 -0.002,0 -0.39585,-0.51662 -1.03727,-0.77149 -1.88086,-0.77149 z m -18.55664,0.26563 h 2.10938 c 0.79255,0 1.33582,0.22595 1.67383,0.66796 a 0.13251324,0.13251324 0 0 0 0.002,0.004 c 0.36431,0.44238 0.5625,1.18797 0.5625,2.24414 v 1.65039 c 0,1.11012 -0.23666,1.87532 -0.67969,2.31836 a 0.13251324,0.13251324 0 0 0 -0.004,0.004 c -0.4204,0.44666 -1.06799,0.67773 -1.97657,0.67773 h -1.6875 z m 18.68946,0 h 1.98437 c 0.79256,0 1.33387,0.22595 1.67188,0.66796 a 0.13251324,0.13251324 0 0 0 0.004,0.004 c 0.36432,0.44238 0.5625,1.18797 0.5625,2.24414 v 2.28516 c 0,1.11011 -0.2386,1.87532 -0.68164,2.31836 a 0.13251324,0.13251324 0 0 0 -0.002,0.004 c -0.4204,0.44667 -1.06994,0.67774 -1.97852,0.67774 h -1.56054 z M -181,171.30273 a 0.13251324,0.13251324 0 0 0 -0.13281,0.13282 v 9.10156 A 0.13251324,0.13251324 0 0 0 -181,180.66992 h 2.66602 c 0.84129,0 1.49172,-0.22104 1.91796,-0.67773 a 0.13251324,0.13251324 0 0 0 0.002,-0.002 c 0.42934,-0.49067 0.62695,-1.28432 0.62695,-2.37304 v -2.58203 c 0,-1.3689 -0.23488,-2.3318 -0.75391,-2.88282 -0.48503,-0.57438 -1.29152,-0.84961 -2.38476,-0.84961 z m 0.13281,0.26563 h 1.94141 c 1.05036,0 1.76533,0.26112 2.18359,0.75781 a 0.13251324,0.13251324 0 0 0 0.006,0.006 c 0.43941,0.46525 0.6836,1.3641 0.6836,2.70313 v 2.58203 c 0,1.05529 -0.20024,1.78465 -0.56055,2.19726 -0.36405,0.38816 -0.92699,0.58985 -1.7207,0.58985 h -2.53321 z"
       id="text1" />
  </g>
</svg>
