<?xml version="1.0" encoding="UTF-8" standalone="no"?>
<!-- Created with Inkscape (http://www.inkscape.org/) -->

<svg
   width="177.51366mm"
   height="30.744196mm"
   viewBox="0 0 177.51365 30.744197"
   version="1.1"
   id="svg1"
   xmlns="http://www.w3.org/2000/svg"
   xmlns:svg="http://www.w3.org/2000/svg">
  <defs
     id="defs1" />
  <g
     id="layer1"
     transform="translate(278.41797,-85.615234)"
     style="fill:#d7d7d7;fill-opacity:1">
    <path
       style="-inkscape-font-specification:'Bebas Neue';opacity:0.95;fill:#d7d7d7;fill-opacity:1;stroke-linecap:round;stroke-linejoin:round"
       d="m -196.90039,85.615234 c -2.25467,0 -4.00519,0.64702 -5.21875,1.947266 a 0.13230472,0.13230472 0 0 0 -0.002,0.002 c -1.18405,1.29957 -1.76953,3.128575 -1.76953,5.464844 v 15.917976 c 0,2.33626 0.58548,4.16527 1.76953,5.46484 a 0.13230472,0.13230472 0 0 0 0.002,0 c 1.21356,1.30025 2.96408,1.94726 5.21875,1.94727 2.25467,0 3.99213,-0.646 5.17773,-1.94727 1.21269,-1.2993 1.8125,-3.12804 1.8125,-5.46484 v -4.19141 a 0.13230472,0.13230472 0 0 0 -0.13281,-0.13281 h -4.40234 a 0.13230472,0.13230472 0 0 0 -0.13281,0.13281 v 4.5293 c 0,0.88416 -0.18919,1.52682 -0.54883,1.94531 -0.35964,0.41849 -0.89603,0.63086 -1.64649,0.63086 -0.75045,0 -1.28684,-0.21237 -1.64648,-0.63086 -0.35964,-0.41849 -0.54883,-1.06115 -0.54883,-1.94531 V 92.732422 c 0,-0.898565 0.19082,-1.553104 0.55078,-1.978516 0.35996,-0.425412 0.89448,-0.640625 1.64453,-0.640625 0.75006,0 1.28457,0.215213 1.64453,0.640625 0.35997,0.425412 0.55079,1.079951 0.55079,1.978516 v 3.429687 a 0.13230472,0.13230472 0 0 0 0.13281,0.132813 h 4.40234 a 0.13230472,0.13230472 0 0 0 0.13281,-0.132813 v -3.132812 c 0,-2.336079 -0.60057,-4.165617 -1.8125,-5.464844 -1.1856,-1.301267 -2.92306,-1.949219 -5.17773,-1.949219 z m 18.05469,0 c -2.31105,0 -4.10385,0.661741 -5.34571,1.990235 -1.24098,1.327567 -1.85546,3.200512 -1.85546,5.59375 v 15.578121 c 0,2.39324 0.61448,4.26619 1.85546,5.59375 1.24186,1.3285 3.03466,1.98829 5.34571,1.98829 2.31104,0 4.10385,-0.65979 5.3457,-1.98829 1.24099,-1.32756 1.85742,-3.20051 1.85742,-5.59375 V 93.199219 c 0,-2.393238 -0.61643,-4.266183 -1.85742,-5.59375 -1.24185,-1.328494 -3.03466,-1.990235 -5.3457,-1.990235 z m 52.47265,0 c -2.28313,0 -4.04818,0.661127 -5.26172,1.990235 -1.21368,1.300373 -1.8125,3.173073 -1.8125,5.59375 v 15.578121 c 0,2.42068 0.59981,4.30659 1.8125,5.63477 1.21393,1.30063 2.97915,1.94726 5.26172,1.94727 2.28258,0 4.0478,-0.64664 5.26172,-1.94727 1.21269,-1.32818 1.8125,-3.21409 1.8125,-5.63477 v -9.695309 a 0.13230472,0.13230472 0 0 0 -0.13086,-0.130859 h -6.73242 a 0.13230472,0.13230472 0 0 0 -0.13086,0.130859 v 4.234379 a 0.13230472,0.13230472 0 0 0 0.13086,0.13281 h 2.19727 v 5.66601 c 0,0.94108 -0.198,1.62772 -0.57227,2.07422 -0.37427,0.4465 -0.93095,0.67188 -1.70898,0.67188 -0.77803,0 -1.33471,-0.22538 -1.70899,-0.67188 -0.37427,-0.4465 -0.57226,-1.13314 -0.57226,-2.07422 V 92.902344 c 0,-0.955452 0.19963,-1.653975 0.57421,-2.107422 0.37459,-0.453447 0.92939,-0.681641 1.70704,-0.681641 0.77764,0 1.33244,0.228194 1.70703,0.681641 0.37458,0.453447 0.57422,1.15197 0.57422,2.107422 v 2.835937 a 0.13230472,0.13230472 0 0 0 0.13281,0.132813 h 4.40234 a 0.13230472,0.13230472 0 0 0 0.13086,-0.132813 v -2.539062 c 0,-2.420677 -0.59882,-4.293377 -1.8125,-5.59375 -1.21353,-1.329108 -2.97859,-1.990235 -5.26172,-1.990235 z m 18.26758,0 c -2.31104,0 -4.10385,0.661741 -5.3457,1.990235 -1.24099,1.327567 -1.85742,3.200511 -1.85742,5.59375 v 15.578121 c 0,2.39324 0.61643,4.26619 1.85742,5.59375 1.24185,1.3285 3.03466,1.98829 5.3457,1.98829 2.31104,0 4.10385,-0.65979 5.3457,-1.98829 1.24099,-1.32756 1.85547,-3.20051 1.85547,-5.59375 V 93.199219 c 0,-2.393238 -0.61448,-4.266183 -1.85547,-5.59375 -1.24185,-1.328494 -3.03466,-1.990235 -5.3457,-1.990235 z m -88.79492,0.265625 c 2.20443,0 3.8538,0.622597 4.98242,1.861328 a 0.13230472,0.13230472 0 0 0 0.002,0 c 1.15799,1.240697 1.74219,2.995476 1.74219,5.28711 v 3 h -4.13867 v -3.296875 c 0,-0.935878 -0.19713,-1.656628 -0.61328,-2.148438 -0.41615,-0.491809 -1.04549,-0.734375 -1.84766,-0.734375 -0.80216,0 -1.43151,0.242566 -1.84765,0.734375 -0.41615,0.49181 -0.61329,1.21256 -0.61328,2.148438 v 16.552738 c 0,0.92205 0.19876,1.63452 0.61523,2.11914 0.41647,0.48462 1.04394,0.72265 1.8457,0.72265 0.80177,0 1.43119,-0.23803 1.84766,-0.72265 0.41647,-0.48462 0.61328,-1.19709 0.61328,-2.11914 v -4.39649 h 4.13867 v 4.0586 c 0,2.29163 -0.5842,4.04445 -1.74219,5.28515 a 0.13230472,0.13230472 0 0 0 -0.002,0.002 c -1.12862,1.23873 -2.77799,1.86132 -4.98242,1.86132 -2.20326,0 -3.86641,-0.62289 -5.02344,-1.86132 l -0.002,-0.002 c -1.12901,-1.24032 -1.69922,-2.99416 -1.69922,-5.28515 V 93.029297 c 0,-2.292172 0.57101,-4.046682 1.70117,-5.28711 1.15706,-1.238958 2.81971,-1.861328 5.02344,-1.861328 z m 18.05469,0 c 2.26095,0 3.96904,0.636348 5.15429,1.904297 1.18612,1.268875 1.78321,3.065972 1.78321,5.414063 v 15.578121 c 0,2.3481 -0.59709,4.14324 -1.78321,5.41211 -1.18525,1.26795 -2.89334,1.90625 -5.15429,1.90625 -2.26096,0 -3.96709,-0.6383 -5.15235,-1.90625 -1.18612,-1.26887 -1.78515,-3.06401 -1.78515,-5.41211 V 93.199219 c 0,-2.348091 0.59903,-4.145188 1.78515,-5.414063 1.18526,-1.267949 2.89139,-1.904297 5.15235,-1.904297 z m 52.47265,0 c 2.23242,0 3.90928,0.636962 5.06641,1.904297 a 0.13230472,0.13230472 0 0 0 0.002,0 c 1.15699,1.239625 1.74219,3.036965 1.74219,5.414063 v 2.40625 h -4.13867 v -2.703125 c 0,-0.99188 -0.20307,-1.755172 -0.63281,-2.275391 -0.42975,-0.520219 -1.08109,-0.777344 -1.91211,-0.777344 -0.83103,0 -1.48237,0.257125 -1.91211,0.777344 -0.42975,0.520219 -0.63282,1.283511 -0.63282,2.275391 v 16.212886 c 0,0.97804 0.20471,1.73109 0.63477,2.24415 0.43006,0.51305 1.07952,0.76757 1.91016,0.76757 0.83063,0 1.48205,-0.25452 1.91211,-0.76757 0.43005,-0.51306 0.63281,-1.26611 0.63281,-2.24415 v -5.79882 a 0.13230472,0.13230472 0 0 0 -0.13086,-0.13282 h -2.19727 v -3.968746 h 6.4668 v 9.562496 c 0,2.37591 -0.58537,4.18692 -1.74219,5.45508 -1.15674,1.23937 -2.83539,1.86328 -5.06836,1.86328 -2.23178,0 -3.90972,-0.62327 -5.0664,-1.86132 l -0.002,-0.002 c -1.15682,-1.26816 -1.74218,-3.07917 -1.74218,-5.45508 V 93.199219 c 0,-2.377098 0.5852,-4.174438 1.74218,-5.414063 a 0.13230472,0.13230472 0 0 0 0.002,0 c 1.15713,-1.267335 2.83399,-1.904297 5.0664,-1.904297 z m 18.26758,0 c 2.26095,0 3.96708,0.636348 5.15234,1.904297 1.18613,1.268875 1.78516,3.065972 1.78516,5.414063 v 15.578121 c 0,2.3481 -0.59903,4.14324 -1.78516,5.41211 -1.18526,1.26795 -2.89139,1.90625 -5.15234,1.90625 -2.26096,0 -3.96904,-0.6383 -5.1543,-1.90625 -1.18612,-1.26887 -1.7832,-3.06401 -1.7832,-5.41211 V 93.199219 c 0,-2.348091 0.59708,-4.145188 1.7832,-5.414063 1.18526,-1.267949 2.89334,-1.904297 5.1543,-1.904297 z m -170.17969,0.158203 a 0.13230472,0.13230472 0 0 0 -0.13281,0.132813 v 29.632815 a 0.13230472,0.13230472 0 0 0 0.13281,0.13281 h 4.65625 a 0.13230472,0.13230472 0 0 0 0.13282,-0.13281 v -12.7793 h 5.8789 a 0.13230472,0.13230472 0 0 0 0.13086,-0.13281 v -4.232424 a 0.13230472,0.13230472 0 0 0 -0.13086,-0.132812 h -5.8789 v -7.990235 h 7.52929 a 0.13230472,0.13230472 0 0 0 0.13282,-0.132812 v -4.232422 a 0.13230472,0.13230472 0 0 0 -0.13282,-0.132813 z m 18.39258,0 a 0.13230472,0.13230472 0 0 0 -0.13086,0.111329 l -4.82617,29.632809 a 0.13230472,0.13230472 0 0 0 0.13086,0.1543 h 4.31836 a 0.13230472,0.13230472 0 0 0 0.13086,-0.11328 l 0.83008,-5.6875 h 5.07617 l 0.81641,5.6875 a 0.13230472,0.13230472 0 0 0 0.13085,0.11328 h 4.65821 a 0.13230472,0.13230472 0 0 0 0.1289,-0.1543 l -4.82421,-29.632809 a 0.13230472,0.13230472 0 0 0 -0.13086,-0.111329 z m 14.96485,0 a 0.13230472,0.13230472 0 0 0 -0.13282,0.132813 v 29.632815 a 0.13230472,0.13230472 0 0 0 0.13282,0.13281 h 12.31836 a 0.13230472,0.13230472 0 0 0 0.13281,-0.13281 v -4.23438 a 0.13230472,0.13230472 0 0 0 -0.13281,-0.13086 h -7.5293 V 86.171875 a 0.13230472,0.13230472 0 0 0 -0.13281,-0.132813 z m 16.15039,0 a 0.13230472,0.13230472 0 0 0 -0.13282,0.132813 v 29.632815 a 0.13230472,0.13230472 0 0 0 0.13282,0.13281 h 12.69922 a 0.13230472,0.13230472 0 0 0 0.13281,-0.13281 v -4.23438 a 0.13230472,0.13230472 0 0 0 -0.13281,-0.13086 h -7.91016 v -8.83789 h 6.25976 a 0.13230472,0.13230472 0 0 0 0.13282,-0.13281 v -4.232422 a 0.13230472,0.13230472 0 0 0 -0.13282,-0.132812 h -6.25976 v -7.566407 h 7.91016 a 0.13230472,0.13230472 0 0 0 0.13281,-0.132812 v -4.232422 a 0.13230472,0.13230472 0 0 0 -0.13281,-0.132813 z m 61.72265,0 a 0.13230472,0.13230472 0 0 0 -0.13281,0.132813 v 29.632815 a 0.13230472,0.13230472 0 0 0 0.13281,0.13281 h 4.0625 a 0.13230472,0.13230472 0 0 0 0.13282,-0.13281 V 94.560547 l 3.20898,21.263673 a 0.13230472,0.13230472 0 0 0 0.13086,0.11328 h 3.89453 a 0.13230472,0.13230472 0 0 0 0.13086,-0.11328 l 3.20703,-21.250001 v 21.230471 a 0.13230472,0.13230472 0 0 0 0.13281,0.13281 h 4.40235 a 0.13230472,0.13230472 0 0 0 0.13281,-0.13281 V 86.171875 a 0.13230472,0.13230472 0 0 0 -0.13281,-0.132813 h -6.64649 a 0.13230472,0.13230472 0 0 0 -0.13086,0.113282 l -2.87304,20.572266 -2.875,-20.572266 a 0.13230472,0.13230472 0 0 0 -0.13086,-0.113282 z m 24.36133,0 a 0.13230472,0.13230472 0 0 0 -0.13086,0.132813 v 29.632815 a 0.13230472,0.13230472 0 0 0 0.13086,0.13281 h 4.6582 a 0.13230472,0.13230472 0 0 0 0.13086,-0.13281 V 86.171875 a 0.13230472,0.13230472 0 0 0 -0.13086,-0.132813 z m -135.46094,0.263672 h 12.05469 v 3.96875 h -7.5293 a 0.13230472,0.13230472 0 0 0 -0.13281,0.132813 v 8.255859 a 0.13230472,0.13230472 0 0 0 0.13281,0.13086 h 5.87891 v 3.968754 h -5.87891 a 0.13230472,0.13230472 0 0 0 -0.13281,0.13281 v 12.7793 h -4.39258 z m 18.375,0 h 6.08203 l 4.78321,29.369146 h -4.38672 l -0.82813,-5.75196 -0.002,-0.0195 a 0.13230472,0.13230472 0 0 0 -0.21875,-0.0273 h -5.20312 a 0.13230472,0.13230472 0 0 0 -0.13086,0.11328 l -0.83008,5.68555 h -4.04883 z m 14.98438,0 h 4.39258 v 25.267576 a 0.13230472,0.13230472 0 0 0 0.13086,0.13282 h 7.53125 v 3.96875 h -12.05469 z m 16.15039,0 h 12.43555 v 3.96875 h -7.91211 a 0.13230472,0.13230472 0 0 0 -0.13086,0.132813 v 7.832031 a 0.13230472,0.13230472 0 0 0 0.13086,0.132813 h 6.25976 v 3.968749 h -6.25976 a 0.13230472,0.13230472 0 0 0 -0.13086,0.13086 v 9.10156 a 0.13230472,0.13230472 0 0 0 0.13086,0.13282 h 7.91211 v 3.96875 h -12.43555 z m 61.7207,0 h 6.40039 l 2.94727,21.095706 a 0.13230472,0.13230472 0 0 0 0.13086,0.11328 h 0.084 a 0.13230472,0.13230472 0 0 0 0.13086,-0.11328 l 2.94727,-21.095706 h 6.40039 v 29.369146 h -4.13867 V 93.367187 a 0.13230472,0.13230472 0 0 0 -0.13282,-0.130859 h -0.084 a 0.13230472,0.13230472 0 0 0 -0.13086,0.111328 l -3.36914,22.324224 h -3.66797 l -3.36914,-22.324224 a 0.13230472,0.13230472 0 0 0 -0.13086,-0.111328 h -0.0859 a 0.13230472,0.13230472 0 0 0 -0.13086,0.130859 v 22.304693 h -3.80078 z m 24.36328,0 h 4.39258 v 29.369146 h -4.39258 z m -36.28515,3.546875 c -0.83103,0 -1.48041,0.257125 -1.91016,0.777344 -0.42975,0.520219 -0.63476,1.283511 -0.63476,2.275391 v 16.171876 c 0,0.99188 0.20501,1.75322 0.63476,2.27344 0.42975,0.52022 1.07913,0.77929 1.91016,0.77929 0.83102,0 1.48236,-0.25907 1.91211,-0.77929 0.42974,-0.52022 0.63476,-1.28156 0.63476,-2.27344 V 92.902344 c 0,-0.99188 -0.20502,-1.755172 -0.63476,-2.275391 -0.42975,-0.520219 -1.08109,-0.777344 -1.91211,-0.777344 z m 70.74023,0 c -0.83102,0 -1.48236,0.257125 -1.91211,0.777344 -0.42974,0.520219 -0.63476,1.283511 -0.63476,2.275391 v 16.171876 c 0,0.99188 0.20502,1.75322 0.63476,2.27344 0.42975,0.52022 1.08109,0.77929 1.91211,0.77929 0.83102,0 1.48041,-0.25907 1.91016,-0.77929 0.42974,-0.52022 0.63476,-1.28156 0.63476,-2.27344 V 92.902344 c 0,-0.99188 -0.20502,-1.755172 -0.63476,-2.275391 -0.42975,-0.520219 -1.07914,-0.777344 -1.91016,-0.777344 z m -70.74023,0.263672 c 0.77764,0 1.33439,0.228194 1.70898,0.681641 0.37459,0.453447 0.57227,1.15197 0.57227,2.107422 v 16.171876 c 0,0.95545 -0.19768,1.65202 -0.57227,2.10547 -0.37459,0.45344 -0.93134,0.68164 -1.70898,0.68164 -0.77765,0 -1.33245,-0.2282 -1.70703,-0.68164 -0.37459,-0.45345 -0.57227,-1.15002 -0.57227,-2.10547 V 92.902344 c 0,-0.955452 0.19768,-1.653975 0.57227,-2.107422 0.37458,-0.453447 0.92938,-0.681641 1.70703,-0.681641 z m 70.74023,0 c 0.77764,0 1.33245,0.228194 1.70703,0.681641 0.37459,0.453447 0.57227,1.15197 0.57227,2.107422 v 16.171876 c 0,0.95545 -0.19768,1.65202 -0.57227,2.10547 -0.37458,0.45344 -0.92939,0.68164 -1.70703,0.68164 -0.77764,0 -1.3344,-0.2282 -1.70898,-0.68164 -0.37459,-0.45345 -0.57227,-1.15002 -0.57227,-2.10547 V 92.902344 c 0,-0.955452 0.19768,-1.653975 0.57227,-2.107422 0.37458,-0.453447 0.93134,-0.681641 1.70898,-0.681641 z m -148.86523,1.089844 a 0.13230472,0.13230472 0 0 0 -0.13086,0.115234 l -2.03321,14.646481 a 0.13230472,0.13230472 0 0 0 0.13086,0.15039 h 4.19141 a 0.13230472,0.13230472 0 0 0 0.13086,-0.15039 l -2.07422,-14.648434 a 0.13230472,0.13230472 0 0 0 -0.13086,-0.113281 z m 0.043,0.787109 1.96289,13.861326 h -3.88672 z"
       id="text1" />
  </g>
</svg>
