<?xml version="1.0" encoding="UTF-8" standalone="no"?>
<svg
   width="25.620697"
   height="16.213081"
   viewBox="0 0 25.620697 16.213081"
   fill="none"
   version="1.1"
   id="svg15"
   sodipodi:docname="Icons.svg"
   xmlns:inkscape="http://www.inkscape.org/namespaces/inkscape"
   xmlns:sodipodi="http://sodipodi.sourceforge.net/DTD/sodipodi-0.dtd"
   xmlns="http://www.w3.org/2000/svg"
   xmlns:svg="http://www.w3.org/2000/svg">
  <defs
     id="defs15" />
  <sodipodi:namedview
     id="namedview15"
     pagecolor="#ffffff"
     bordercolor="#999999"
     borderopacity="1"
     inkscape:showpageshadow="2"
     inkscape:pageopacity="0"
     inkscape:pagecheckerboard="0"
     inkscape:deskcolor="#d1d1d1" />
  <path
     d="M 0.49999882,15.68509 V 0.50000045 H 6.6551988 c 1.0883,0 2.132,0.39996 2.9015,1.11190005 0.7696002,0.71189 1.2019002,1.67749 1.2019002,2.68439 0,1.0068 -0.4323,1.9724 -1.2019002,2.6843 -0.7695,0.712 -1.8132,1.1119 -2.9015,1.1119 1.0883,0 2.132,0.4 2.9015,1.1119 0.7696002,0.712 1.2019002,1.6775995 1.2019002,2.6843995 0,1.0068 -0.4323,1.9724 -1.2019002,2.6844 -0.7695,0.7119 -1.8132,1.1119 -2.9015,1.1119 z"
     stroke="#ffffff"
     stroke-linecap="round"
     stroke-linejoin="round"
     id="path9" />
  <path
     d="M 0.49999882,8.0922905 H 6.6551988"
     stroke="#ffffff"
     stroke-linecap="round"
     stroke-linejoin="round"
     id="path10" />
  <path
     d="m 15.545999,9.3576905 h 9.5747 c 0,-1.1746 -0.5043,-2.3012 -1.4022,-3.1318 -0.8978,-0.8306 -2.1154,-1.2972 -3.3851,-1.2972 -1.2697,0 -2.4874,0.4666 -3.3852,1.2972 -0.8978,0.8306 -1.4022,1.9572 -1.4022,3.1318 z m 0,0 V 11.88849 c 0.1411,0.9474 0.6099,1.8271 1.3362,2.5076 0.7263,0.6804 1.6712,1.1251 2.6934,1.2675 1.0222,0.1424 2.0668,-0.0251 2.9775,-0.4774 0.9108,-0.4524 1.6388,-1.1653 2.0752,-2.0322"
     stroke="#ffffff"
     stroke-linecap="round"
     stroke-linejoin="round"
     id="path11" />
  <path
     d="m 18.281599,0.50000045 h 4.1035"
     stroke="#ffffff"
     stroke-linecap="round"
     stroke-linejoin="round"
     id="path12" />
</svg>
