<?xml version="1.0" encoding="UTF-8" standalone="no"?>
<svg
   width="40.992279"
   height="40.805225"
   viewBox="0 0 40.992279 40.805225"
   fill="none"
   version="1.1"
   id="svg2"
   xml:space="preserve"
   xmlns="http://www.w3.org/2000/svg"
   xmlns:svg="http://www.w3.org/2000/svg"><defs
     id="defs2" /><path
     id="path16"
     style="color:#000000;fill:#ffffff;stroke-linecap:round;stroke-linejoin:round;-inkscape-stroke:none"
     d="m -213.69727,10.396484 c -0.52615,7.09e-4 -0.95046,0.424512 -0.95117,0.951172 V 20.048828 28.75 c 7.1e-4,0.526155 0.42452,0.950463 0.95117,0.951172 h 7.05274 c 1.47967,0 2.90417,-0.544414 3.96875,-1.529297 1.06679,-0.986949 1.68555,-2.345406 1.68555,-3.773438 0,-1.42803 -0.61875,-2.786486 -1.68555,-3.773437 -0.24818,-0.229604 -0.52412,-0.414752 -0.80664,-0.576172 0.28252,-0.16141 0.55846,-0.346543 0.80664,-0.576172 1.06687,-0.986888 1.68555,-2.345416 1.68555,-3.773437 0,-1.428114 -0.61872,-2.786607 -1.68555,-3.773438 -1.0646,-0.98495 -2.48911,-1.529297 -3.96875,-1.529297 z m 20.37696,0 c -0.52743,-0.0011 -0.95248,0.4241 -0.95313,0.951172 -0.001,0.52866 0.42529,0.954274 0.95313,0.953125 h 4.70117 c 0.52866,0.0011 0.95427,-0.424819 0.95312,-0.953125 -6.5e-4,-0.527426 -0.42652,-0.952317 -0.95312,-0.951172 z m -19.42578,1.902344 h 6.10156 c 1.01599,0 1.97985,0.374006 2.67969,1.021485 0.69625,0.644056 1.07226,1.50101 1.07226,2.378906 0,0.877748 -0.376,1.734835 -1.07226,2.378906 -0.69926,0.646989 -1.66266,1.019532 -2.67969,1.019531 h -6.10156 z m 21.77539,3.171875 c -1.68692,0 -3.31125,0.618783 -4.52344,1.740234 -1.21415,1.123259 -1.91406,2.66756 -1.91406,4.28711 v 2.90039 c -1e-4,0.04536 0.005,0.09213 0.0117,0.140625 0.18608,1.249356 0.78894,2.399149 1.70117,3.302735 v 0.01367 l 0.12109,0.111328 c 0.98129,0.919264 2.24397,1.511777 3.60352,1.701172 1.3592,0.189345 2.7483,-0.03349 3.96679,-0.638672 1.21936,-0.605664 2.20787,-1.56638 2.80469,-2.751953 0.23718,-0.470736 0.0489,-1.040206 -0.42187,-1.277344 -0.47074,-0.237184 -1.04014,-0.04898 -1.27735,0.421875 -0.40318,0.800907 -1.08286,1.473005 -1.95117,1.904297 -0.86897,0.431579 -1.87409,0.594016 -2.85742,0.457031 -0.98333,-0.136988 -1.88458,-0.564505 -2.56836,-1.205078 -0.67069,-0.628399 -1.09212,-1.427759 -1.22852,-2.279297 v -1.847656 h 10.01954 c 0.52861,0.0011 0.95422,-0.42529 0.95312,-0.953125 0,-1.619497 -0.69978,-3.163837 -1.91406,-4.28711 -1.21233,-1.121585 -2.83849,-1.740234 -4.52539,-1.740234 z m 0,1.904297 c 1.22458,0 2.38797,0.44938 3.23437,1.232422 0.57512,0.532016 0.92307,1.208755 1.09766,1.939453 h -8.66211 c 0.17424,-0.730931 0.52084,-1.407615 1.0957,-1.939453 0.84637,-0.783015 2.00977,-1.232422 3.23438,-1.232422 z M -212.74609,21 h 6.10156 c 1.01698,0 1.98041,0.372602 2.67969,1.019531 0.69631,0.644215 1.07226,1.501147 1.07226,2.378906 0,0.877762 -0.37595,1.734698 -1.07226,2.378907 -0.69984,0.647436 -1.66372,1.021484 -2.67969,1.021484 h -6.10156 z"
     transform="translate(220.08698,0.33779216)" /><rect
     style="opacity:0.95;fill:none;stroke:#ffffff;stroke-width:2.25;stroke-linecap:round;stroke-linejoin:round;stroke-dasharray:none"
     id="rect9"
     width="38.742283"
     height="38.555225"
     x="1.125"
     y="1.125"
     ry="4.6248465" /></svg>
