<?xml version="1.0" encoding="UTF-8" standalone="no"?>
<svg
   width="20.125"
   height="19.653223"
   viewBox="0 0 20.125 19.653223"
   fill="none"
   version="1.1"
   id="svg15"
   sodipodi:docname="Icons.svg"
   xmlns:inkscape="http://www.inkscape.org/namespaces/inkscape"
   xmlns:sodipodi="http://sodipodi.sourceforge.net/DTD/sodipodi-0.dtd"
   xmlns="http://www.w3.org/2000/svg"
   xmlns:svg="http://www.w3.org/2000/svg">
  <defs
     id="defs15" />
  <sodipodi:namedview
     id="namedview15"
     pagecolor="#ffffff"
     bordercolor="#999999"
     borderopacity="1"
     inkscape:showpageshadow="2"
     inkscape:pageopacity="0"
     inkscape:pagecheckerboard="0"
     inkscape:deskcolor="#d1d1d1" />
  <path
     d="m 7.25,17.071623 c -4.8375,1.4571 -4.8375,-2.6019 -6.75,-3.1223 m 13.5,5.2039 v -3.6427 c 0,-1.0408 0.1125,-1.4571 -0.5625,-2.0816 3.15,-0.3122 6.1875,-1.4571 6.1875,-6.2447003 -0.0014,-1.2438 -0.5259,-2.4382 -1.4625,-3.3305 0.4393,-1.08037 0.3988,-2.27762 -0.1125,-3.33049999 0,0 -1.2375,-0.31224 -3.9375,1.35300999 -2.2869,-0.551 -4.6881,-0.551 -6.975,0 C 4.4375,0.21098271 3.2,0.52322271 3.2,0.52322271 2.68867,1.5761027 2.64822,2.7733527 3.0875,3.8537227 c -0.93662,0.8923 -1.46113,2.0867 -1.4625,3.3305 0,4.7876003 3.0375,5.9325003 6.1875,6.2447003 -0.675,0.6245 -0.675,1.2489 -0.5625,2.0816 v 3.6427"
     stroke="#ffffff"
     stroke-linecap="round"
     stroke-linejoin="round"
     id="path15" />
</svg>
