<?xml version="1.0" encoding="UTF-8" standalone="no"?>
<svg
   width="22.884605"
   height="21.246771"
   viewBox="0 0 22.884605 21.246771"
   fill="none"
   version="1.1"
   id="svg15"
   sodipodi:docname="Icons.svg"
   xmlns:inkscape="http://www.inkscape.org/namespaces/inkscape"
   xmlns:sodipodi="http://sodipodi.sourceforge.net/DTD/sodipodi-0.dtd"
   xmlns="http://www.w3.org/2000/svg"
   xmlns:svg="http://www.w3.org/2000/svg">
  <defs
     id="defs15" />
  <sodipodi:namedview
     id="namedview15"
     pagecolor="#ffffff"
     bordercolor="#999999"
     borderopacity="1"
     inkscape:showpageshadow="2"
     inkscape:pageopacity="0"
     inkscape:pagecheckerboard="0"
     inkscape:deskcolor="#d1d1d1" />
  <path
     d="M 16.913604,0.49999992 H 5.9713036 c -3.0217,0 -5.47130002,2.26618998 -5.47130002,5.06166998 V 15.68507 c 0,2.7955 2.44960002,5.0617 5.47130002,5.0617 H 16.913604 c 3.022,0 5.471,-2.2662 5.471,-5.0617 V 5.5616699 c 0,-2.79548 -2.449,-5.06166998 -5.471,-5.06166998 z"
     stroke="#ffffff"
     stroke-linecap="round"
     stroke-linejoin="round"
     id="path6" />
  <path
     d="m 11.442604,14.41967 c 2.266,0 4.103,-1.6996 4.103,-3.7963 0,-2.0966001 -1.837,-3.7962001 -4.103,-3.7962001 -2.2664004,0 -4.1036004,1.6996 -4.1036004,3.7962001 0,2.0967 1.8372,3.7963 4.1036004,3.7963 z"
     stroke="#ffffff"
     stroke-linecap="round"
     stroke-linejoin="round"
     id="path7" />
  <path
     d="m 17.597604,4.9287099 v 0.00214"
     stroke="#ffffff"
     stroke-linecap="round"
     stroke-linejoin="round"
     id="path8" />
</svg>
