<?xml version="1.0" encoding="UTF-8" standalone="no"?>
<svg
   width="22.884995"
   height="21.246771"
   viewBox="0 0 22.884995 21.246771"
   fill="none"
   version="1.1"
   id="svg15"
   sodipodi:docname="Icons.svg"
   xmlns:inkscape="http://www.inkscape.org/namespaces/inkscape"
   xmlns:sodipodi="http://sodipodi.sourceforge.net/DTD/sodipodi-0.dtd"
   xmlns="http://www.w3.org/2000/svg"
   xmlns:svg="http://www.w3.org/2000/svg">
  <defs
     id="defs15" />
  <sodipodi:namedview
     id="namedview15"
     pagecolor="#ffffff"
     bordercolor="#999999"
     borderopacity="1"
     inkscape:showpageshadow="2"
     inkscape:pageopacity="0"
     inkscape:pagecheckerboard="0"
     inkscape:deskcolor="#d1d1d1" />
  <path
     d="M 19.649002,0.49999992 H 3.2350018 c -1.511,0 -2.73499997,1.13309998 -2.73499997,2.53083998 V 18.21587 c 0,1.3978 1.22399997,2.5309 2.73499997,2.5309 H 19.649002 c 1.511,0 2.736,-1.1331 2.736,-2.5309 V 3.0308399 c 0,-1.39774 -1.225,-2.53083998 -2.736,-2.53083998 z"
     stroke="#ffffff"
     stroke-linecap="round"
     stroke-linejoin="round"
     id="path1"
     inkscape:export-filename="..\OneDrive\Ãrea de Trabalho\linkedin.svg"
     inkscape:export-xdpi="96"
     inkscape:export-ydpi="96" />
  <path
     d="M 5.9710018,9.3578699 V 15.68507"
     stroke="#ffffff"
     stroke-linecap="round"
     stroke-linejoin="round"
     id="path2" />
  <path
     d="m 5.9710018,5.5615699 v 0.0131"
     stroke="#ffffff"
     stroke-linecap="round"
     stroke-linejoin="round"
     id="path3" />
  <path
     d="M 11.442002,15.68507 V 9.3578699"
     stroke="#ffffff"
     stroke-linecap="round"
     stroke-linejoin="round"
     id="path4" />
  <path
     d="m 16.913002,15.68507 v -3.7963 c 0,-0.6712 -0.288,-1.315 -0.801,-1.7896 -0.513,-0.4746001 -1.209,-0.7413001 -1.934,-0.7413001 -0.726,0 -1.422,0.2667 -1.935,0.7413001 -0.513,0.4746 -0.801,1.1184 -0.801,1.7896"
     stroke="#ffffff"
     stroke-linecap="round"
     stroke-linejoin="round"
     id="path5" />
</svg>
