<?xml version="1.0" encoding="UTF-8" standalone="no"?>
<svg
   width="38.742096"
   height="37.833561"
   viewBox="0 0 38.742096 37.833561"
   fill="none"
   version="1.1"
   id="svg2"
   xml:space="preserve"
   xmlns="http://www.w3.org/2000/svg"
   xmlns:svg="http://www.w3.org/2000/svg"><defs
     id="defs2" /><g
     style="fill:none"
     id="g9"
     transform="translate(9.3084607,9.0908718)"><path
       style="color:#000000;fill:#ffffff;stroke-linecap:round;stroke-linejoin:round;-inkscape-stroke:none"
       d="M 3.4257813,0 C 3.2298351,0.00402904 3.078125,0.0390625 3.078125,0.0390625 A 0.50005,0.50005 0 0 0 2.75,0.3046875 C 2.2247424,1.3862459 2.1989952,2.606142 2.5703125,3.7363281 1.6741735,4.6920045 1.1264147,5.8992406 1.125,7.1835937 c 0,2.4995396 0.8262589,4.1714003 2.0996094,5.1914063 1.0820097,0.866734 2.4434297,1.21555 3.8183593,1.414063 -0.086802,0.170864 -0.2600514,0.322854 -0.296875,0.5 -0.090278,0.434295 -0.050658,0.85628 0.00781,1.289062 L 6.75,15.509766 v 1.111328 C 5.8409734,16.840136 5.0670197,16.921195 4.5488281,16.787109 3.946944,16.631368 3.5240818,16.316037 3.1425781,15.910156 2.7610744,15.504276 2.4397118,15.008436 2.0722656,14.548828 1.7048195,14.08922 1.2678769,13.640132 0.63085937,13.466797 a 0.5,0.5 0 0 0 -0.61328124,0.351562 0.5,0.5 0 0 0 0.3515625,0.613282 c 0.31923154,0.08686 0.60025935,0.339905 0.92187497,0.742187 0.3216157,0.402282 0.6608014,0.928141 1.1230469,1.419922 0.4622455,0.491781 1.0663387,0.950336 1.8847656,1.162109 C 4.9468523,17.92354 5.8282519,17.785453 6.75,17.59375 v 1.558594 a 0.5,0.5 0 0 0 0.5,0.5 0.5,0.5 0 0 0 0.5,-0.5 V 15.509766 A 0.50005,0.50005 0 0 0 7.74609,15.443356 C 7.69206,15.043439 7.674258,14.736342 7.724606,14.494138 7.774953,14.251934 7.8758157,14.052709 8.1523404,13.796872 A 0.50005,0.50005 0 0 0 7.8613281,12.931641 C 6.3303279,12.779901 4.8825066,12.421143 3.8496094,11.59375 2.8167122,10.766357 2.125,9.4716497 2.125,7.1835937 2.1267553,6.0807023 2.5893544,5.0172738 3.4316406,4.2148437 A 0.50005,0.50005 0 0 0 3.5507813,3.6660156 C 3.2004651,2.8044442 3.2445827,1.8746449 3.5820313,1.015625 3.704109,1.0192376 3.8337658,1.02119 4.0585937,1.0664062 4.6373561,1.182804 5.5659352,1.4953566 6.875,2.3027344 a 0.50005,0.50005 0 0 0 0.3789062,0.060547 c 2.2094152,-0.532331 4.5327728,-0.532331 6.7421878,0 A 0.50005,0.50005 0 0 0 14.375,2.3027344 c 1.309065,-0.8073778 2.237644,-1.1199304 2.816406,-1.2363282 0.224828,-0.045216 0.354485,-0.047169 0.476563,-0.050781 0.33744,0.8590316 0.381576,1.788833 0.03125,2.6503906 a 0.50005,0.50005 0 0 0 0.11914,0.5488281 c 0.842761,0.8028989 1.305399,1.8671076 1.306641,2.9707032 -4.77e-4,2.2865842 -0.692068,3.5810949 -1.724609,4.4082029 -1.032898,0.827393 -2.480719,1.186151 -4.011719,1.337891 a 0.50005,0.50005 0 0 0 -0.291016,0.865234 c 0.286683,0.265234 0.34375,0.388633 0.382813,0.605469 0.03906,0.216835 0.01953,0.569007 0.01953,1.107422 v 3.642578 a 0.5,0.5 0 0 0 0.5,0.5 0.5,0.5 0 0 0 0.5,-0.5 v -3.642578 c 0,-0.502385 0.03828,-0.877518 -0.03516,-1.285157 -0.02753,-0.152801 -0.18705,-0.287312 -0.257813,-0.435546 1.37493,-0.198513 2.73635,-0.547329 3.81836,-1.414063 C 19.298741,11.354994 20.125,9.6831333 20.125,7.1835937 20.123554,5.8992502 19.575808,4.6920044 18.679687,3.7363281 19.051019,2.6061308 19.02522,1.3862319 18.5,0.3046875 a 0.50005,0.50005 0 0 0 -0.328125,-0.265625 c 0,0 -0.15171,-0.03503346 -0.347656,-0.0390625 -0.195946,-0.00402904 -0.470632,0.01404027 -0.828125,0.0859375 -0.671415,0.13503158 -1.689069,0.53123707 -2.955078,1.28125 -2.245699,-0.51133953 -4.5863334,-0.51133953 -6.8320316,0 C 5.9429747,0.61717457 4.9253211,0.22096908 4.2539062,0.0859375 3.8964131,0.01404027 3.6217274,-0.00402904 3.4257813,0 Z"
       id="path15"
       transform="matrix(1.9250905,0,0,1.9250905,-9.308805,-9.0898534)" /></g></svg>
