<?xml version="1.0" encoding="UTF-8" standalone="no"?>
<!-- Created with Inkscape (http://www.inkscape.org/) -->

<svg
   width="122.43848mm"
   height="30.744562mm"
   viewBox="0 0 122.43848 30.744562"
   version="1.1"
   id="svg1"
   xml:space="preserve"
   sodipodi:docname="title-backgorund.svg"
   inkscape:version="1.4 (86a8ad7, 2024-10-11)"
   xmlns:inkscape="http://www.inkscape.org/namespaces/inkscape"
   xmlns:sodipodi="http://sodipodi.sourceforge.net/DTD/sodipodi-0.dtd"
   xmlns="http://www.w3.org/2000/svg"
   xmlns:svg="http://www.w3.org/2000/svg"><sodipodi:namedview
     id="namedview1"
     pagecolor="#ffffff"
     bordercolor="#000000"
     borderopacity="0.25"
     inkscape:showpageshadow="2"
     inkscape:pageopacity="0.0"
     inkscape:pagecheckerboard="0"
     inkscape:deskcolor="#d1d1d1"
     inkscape:document-units="mm"
     inkscape:zoom="0.95946147"
     inkscape:cx="389.28088"
     inkscape:cy="189.16862"
     inkscape:window-width="1920"
     inkscape:window-height="1009"
     inkscape:window-x="-8"
     inkscape:window-y="-8"
     inkscape:window-maximized="1"
     inkscape:current-layer="svg1" /><defs
     id="defs1" /><g
     id="layer1"
     transform="translate(209.13442,-55.659773)"><path
       style="-inkscape-font-specification:'Bebas Neue';fill:#ffffff;stroke-linecap:square;stroke-linejoin:bevel;opacity:0.3"
       d="m -168.87109,55.660156 c -2.31104,0 -4.10385,0.659788 -5.34571,1.988281 -1.24098,1.327568 -1.85547,3.200512 -1.85547,5.59375 v 15.580079 c 0,2.393238 0.61449,4.266182 1.85547,5.59375 1.24186,1.328493 3.03467,1.988281 5.34571,1.988281 2.31104,0 4.1058,-0.659788 5.34765,-1.988281 1.24099,-1.327568 1.85547,-3.200512 1.85547,-5.59375 V 63.242187 c 0,-2.393238 -0.61448,-4.266182 -1.85547,-5.59375 -1.24185,-1.328493 -3.03661,-1.988281 -5.34765,-1.988281 z m 58.75976,0 c -2.31104,0 -4.10385,0.659788 -5.3457,1.988281 -1.24099,1.327568 -1.85742,3.200512 -1.85742,5.59375 v 15.580079 c 0,2.393238 0.61643,4.266182 1.85742,5.59375 1.24185,1.328493 3.03466,1.988281 5.3457,1.988281 2.31104,0 4.10385,-0.659788 5.3457,-1.988281 1.24099,-1.327568 1.85547,-3.200512 1.85547,-5.59375 V 63.242187 c 0,-2.393238 -0.61448,-4.266182 -1.85547,-5.59375 -1.24185,-1.328493 -3.03466,-1.988281 -5.3457,-1.988281 z m 16.425783,0 c -2.28198,0 -4.048241,0.660518 -5.261719,1.988281 -1.213014,1.299659 -1.814454,3.145009 -1.814454,5.509766 0,1.741073 0.38696,3.317492 1.160158,4.720703 0.773717,1.375498 2.125061,2.908258 4.050781,4.607422 1.518184,1.321382 2.553899,2.458816 3.105469,3.396484 v 0.002 c 0.550936,0.909045 0.828124,1.969673 0.828125,3.191406 0,1.026344 -0.209733,1.753191 -0.601563,2.197265 -0.366329,0.418663 -0.914664,0.632813 -1.679687,0.632813 -0.77803,0 -1.332758,-0.225373 -1.707032,-0.671875 -0.374273,-0.446502 -0.572265,-1.133146 -0.572265,-2.074219 v -2.03125 l -0.132813,-0.132812 h -4.402343 l -0.13281,0.132812 v 1.69336 c 0,2.420157 0.58549,4.304377 1.769528,5.632812 v 0.002 c 1.18596,1.301663 2.938123,1.947266 5.220703,1.947266 2.309879,0 4.08889,-0.660128 5.302735,-1.988281 l 0.002,-0.002 c 1.240448,-1.328178 1.855469,-3.229745 1.855469,-5.677734 0,-1.880036 -0.371884,-3.525076 -1.117188,-4.929687 -0.746009,-1.405941 -2.096202,-2.95271 -4.050781,-4.652344 -1.517928,-1.32116 -2.567857,-2.44376 -3.148438,-3.355469 -0.552778,-0.912084 -0.828125,-1.888265 -0.828125,-2.9375 0,-0.927344 0.192123,-1.603678 0.552735,-2.042969 0.360612,-0.439291 0.893327,-0.660156 1.642578,-0.660156 0.734234,0 1.266184,0.224313 1.634765,0.671875 l 0.002,0.002 c 0.362731,0.414551 0.560546,1.116384 0.560546,2.115235 v 1.523437 l 0.13086,0.132813 h 4.404297 l 0.130859,-0.132813 v -1.228516 c 0,-2.418976 -0.583704,-4.28927 -1.767578,-5.589843 -1.157185,-1.330763 -2.881488,-1.992188 -5.136719,-1.992188 z m -75.185543,0.263672 c 2.26095,0 3.96904,0.638301 5.15429,1.90625 1.18612,1.268875 1.78321,3.064018 1.78321,5.412109 v 15.580079 c 0,2.348091 -0.59709,4.143234 -1.78321,5.412109 -1.18525,1.267949 -2.89334,1.90625 -5.15429,1.90625 -2.26095,0 -3.96709,-0.638301 -5.15235,-1.90625 -1.18612,-1.268875 -1.7832,-3.064018 -1.7832,-5.412109 V 63.242187 c 0,-2.348091 0.59708,-4.143234 1.7832,-5.412109 1.18526,-1.267949 2.8914,-1.90625 5.15235,-1.90625 z m 58.75976,0 c 2.26095,0 3.96708,0.638301 5.15235,1.90625 1.18612,1.268875 1.78515,3.064018 1.78515,5.412109 v 15.580079 c 0,2.348091 -0.59903,4.143234 -1.78515,5.412109 -1.18527,1.267949 -2.8914,1.90625 -5.15235,1.90625 -2.26096,0 -3.96709,-0.638301 -5.15234,-1.90625 -1.18612,-1.268875 -1.78516,-3.064018 -1.78516,-5.412109 V 63.242187 c 0,-2.348091 0.59904,-4.143234 1.78516,-5.412109 1.18525,-1.267949 2.89138,-1.90625 5.15234,-1.90625 z m 16.425783,0 c 2.203877,0 3.836909,0.636664 4.9375,1.902344 l 0.002,0.002 c 1.129182,1.239346 1.701172,3.036446 1.701172,5.414062 v 1.095704 h -4.138672 v -1.390625 c 0,-1.032328 -0.198214,-1.798497 -0.625,-2.28711 -0.42163,-0.511066 -1.046888,-0.767578 -1.835937,-0.767578 -0.80297,0 -1.432158,0.25166 -1.847656,0.757813 -0.415499,0.506152 -0.613282,1.247394 -0.613282,2.210937 0,1.095653 0.291078,2.123638 0.867188,3.074219 l 0.002,0.002 c 0.604967,0.950664 1.67006,2.085081 3.199219,3.416016 1.940084,1.68703 3.270642,3.216336 3.992187,4.576171 0.722251,1.361165 1.083984,2.961348 1.083985,4.806641 -10e-7,2.405061 -0.599688,4.229871 -1.785157,5.498047 v 0.002 c -1.156779,1.266949 -2.84842,1.904297 -5.109375,1.904297 -2.231772,0 -3.895208,-0.624318 -5.023437,-1.861328 l -0.002,-0.002 c -1.129051,-1.267917 -1.701171,-3.078656 -1.701171,-5.455078 v -1.5625 h 4.138671 v 1.90039 c 0,0.978037 0.204706,1.731088 0.634765,2.244141 0.430059,0.513053 1.07952,0.767578 1.910157,0.767578 0.814681,0 1.453057,-0.239093 1.876953,-0.722656 0.454836,-0.515481 0.667968,-1.310949 0.667968,-2.373047 0,-1.261821 -0.287282,-2.374505 -0.865234,-3.328125 h 0.002 c -0.577318,-0.981442 -1.630341,-2.129433 -3.160156,-3.460938 -1.9125,-1.687499 -3.24386,-3.203276 -3.994141,-4.537109 h 0.002 c -0.750799,-1.362565 -1.126949,-2.889761 -1.126949,-4.591797 0,-2.320128 0.584534,-4.087786 1.742184,-5.328125 v -0.002 c 1.157132,-1.267335 2.835939,-1.904297 5.068359,-1.904297 z m -115.316403,0.160156 -0.13282,0.13086 v 29.634765 l 0.13282,0.13086 h 4.65625 l 0.13281,-0.13086 V 73.916016 h 2.06836 c 2.33788,0 4.11759,-0.630339 5.30469,-1.904297 1.18607,-1.272861 1.77148,-3.130624 1.77148,-5.550782 v -2.921875 c 0,-2.420157 -0.58541,-4.277919 -1.77148,-5.550781 -1.1871,-1.273958 -2.96681,-1.904297 -5.30469,-1.904297 z m 16.33984,0 -0.13086,0.13086 v 29.634765 l 0.13086,0.13086 h 4.6582 l 0.13086,-0.13086 V 73.28125 h 1.47657 c 1.05039,0 1.75095,0.260329 2.14062,0.753906 l 0.002,0.0039 c 0.4162,0.494237 0.64649,1.410033 0.64649,2.75 v 5.419922 c 0,1.102929 0.0275,1.864508 0.0859,2.302735 0.0579,0.434023 0.17384,0.893916 0.3457,1.380859 l 0.12305,0.08789 h 4.74218 l 0.1211,-0.185547 c -0.22077,-0.496785 -0.35725,-0.990802 -0.41211,-1.484375 -0.0557,-0.52901 -0.084,-1.216821 -0.084,-2.060547 v -5.207031 c 0,-1.76108 -0.24139,-3.174617 -0.73242,-4.244141 -0.44217,-1.020646 -1.23382,-1.702249 -2.30273,-2.068359 0.96574,-0.427185 1.71994,-1.102224 2.21484,-2.050782 0.52122,-0.998993 0.77734,-2.275451 0.77734,-3.828125 V 63.03125 c 0,-2.334409 -0.55677,-4.081366 -1.68945,-5.214844 -1.1342,-1.163284 -2.92411,-1.732422 -5.34375,-1.732422 z m 37.21094,0 -0.13086,0.13086 v 22.734375 c 0,0.937186 -0.22261,1.616694 -0.64258,2.064453 -0.41948,0.417937 -1.07019,0.638672 -1.97851,0.638672 -0.55563,0 -1.05127,-0.05627 -1.49024,-0.166016 l -0.16601,0.128906 v 4.234375 l 0.10937,0.128907 c 0.60404,0.115055 1.33105,0.171875 2.18359,0.171875 2.30886,0 4.04404,-0.601516 5.17579,-1.820313 1.15923,-1.217997 1.72851,-3.060981 1.72851,-5.507812 V 56.214844 l -0.13086,-0.13086 z m 8.00195,0 -0.13281,0.13086 v 29.634765 l 0.13281,0.13086 H -134.75 l 0.13281,-0.13086 V 81.615234 L -134.75,81.482422 h -7.91016 v -8.835938 h 6.25977 l 0.13281,-0.132812 V 68.28125 l -0.13281,-0.132813 h -6.25977 v -7.568359 h 7.91016 l 0.13281,-0.130859 v -4.234375 l -0.13281,-0.13086 z m 14.13867,0 -0.13281,0.13086 v 4.234375 l 0.13281,0.130859 h 4.73633 v 25.269531 l 0.13281,0.13086 h 4.65625 l 0.13282,-0.13086 V 60.580078 h 4.73632 l 0.13086,-0.130859 v -4.234375 l -0.13086,-0.13086 z m -75.55859,0.263672 h 6.72461 c 2.29056,0 3.98421,0.610718 5.11133,1.820313 1.12815,1.210693 1.69922,2.993477 1.69922,5.371093 v 2.921875 c 0,2.377617 -0.57107,4.158449 -1.69922,5.369141 -1.12712,1.209595 -2.82077,1.822266 -5.11133,1.822266 h -2.20117 l -0.13282,0.130859 v 11.933594 h -4.39062 z m 16.33984,0 h 6.76758 c 2.37814,0 4.08717,0.559805 5.1543,1.654297 h 0.002 c 1.06789,1.067886 1.61328,2.736049 1.61328,5.029297 v 1.820312 c 0,1.523546 -0.25326,2.758694 -0.74804,3.707032 -0.49479,0.948337 -1.22939,1.613227 -2.21875,2.011718 l -0.082,0.123047 v 0.08398 l 0.0937,0.126953 c 1.0977,0.329308 1.84943,0.987859 2.28711,2 l 0.002,0.0039 c 0.46807,1.018749 0.70703,2.397081 0.70703,4.134766 V 82.25 c 0,0.849608 0.0287,1.544458 0.0859,2.087891 v 0.002 c 0.0512,0.460449 0.19737,0.91888 0.38281,1.376953 h -4.4668 c -0.14883,-0.437703 -0.25917,-0.854862 -0.31055,-1.240235 -0.0545,-0.408438 -0.084,-1.169174 -0.084,-2.267578 v -5.419922 c 0,-1.367033 -0.2199,-2.3394 -0.70508,-2.917968 -0.457,-0.578865 -1.25316,-0.855469 -2.34765,-0.855469 h -1.60743 l -0.13281,0.132812 v 12.56836 h -4.39258 z m 37.21094,0 h 4.39258 v 22.47461 c 0,2.406599 -0.55846,4.173493 -1.65625,5.326171 l -0.002,0.002 c -1.0696,1.151867 -2.7193,1.736328 -4.98243,1.736328 -0.79849,0 -1.46279,-0.06021 -2.02734,-0.160157 v -3.964843 c 0.42548,0.09272 0.87782,0.15625 1.39063,0.15625 0.95271,0 1.68425,-0.233086 2.16796,-0.716797 l 0.004,-0.0039 c 0.48172,-0.51183 0.71289,-1.267741 0.71289,-2.248047 z m 8.00195,0 h 12.4336 v 3.96875 h -7.91016 l -0.13281,0.132813 v 7.832031 l 0.13281,0.130859 h 6.25977 v 3.96875 h -6.25977 l -0.13281,0.132813 v 9.101562 l 0.13281,0.132813 h 7.91016 v 3.96875 h -12.4336 z m 14.13868,0 h 14.1289 v 3.96875 h -4.73633 l -0.13281,0.132813 v 25.267578 h -4.39258 V 60.449219 l -0.13086,-0.132813 h -4.73632 z m -35.69336,3.544922 c -0.83103,0 -1.48041,0.259078 -1.91016,0.779297 -0.42975,0.520219 -0.63477,1.283511 -0.63477,2.275391 v 16.169921 c 0,0.991881 0.20502,1.755172 0.63477,2.275391 0.42975,0.520219 1.07913,0.779297 1.91016,0.779297 0.83102,0 1.48236,-0.259078 1.91211,-0.779297 0.42974,-0.520219 0.63476,-1.28351 0.63476,-2.275391 V 62.947266 c 0,-0.99188 -0.20502,-1.755172 -0.63476,-2.275391 -0.42975,-0.520219 -1.08109,-0.779297 -1.91211,-0.779297 z m 58.75976,0 c -0.83102,0 -1.48236,0.259078 -1.91211,0.779297 -0.42974,0.520219 -0.63281,1.283511 -0.63281,2.275391 v 16.169921 c 0,0.991881 0.20307,1.755172 0.63281,2.275391 0.42975,0.520219 1.08109,0.779297 1.91211,0.779297 0.83102,0 1.48237,-0.259078 1.91211,-0.779297 0.42975,-0.520219 0.63281,-1.283511 0.63281,-2.275391 V 62.947266 c 0,-0.99188 -0.20306,-1.755172 -0.63281,-2.275391 -0.42974,-0.520219 -1.08109,-0.779297 -1.91211,-0.779297 z m -58.75976,0.265625 c 0.77764,0 1.33439,0.228194 1.70898,0.681641 0.37459,0.453447 0.57227,1.15197 0.57227,2.107422 v 16.169921 c 0,0.955452 -0.19768,1.653975 -0.57227,2.107422 -0.37459,0.453447 -0.93134,0.681641 -1.70898,0.681641 -0.77765,0 -1.33245,-0.228194 -1.70703,-0.681641 -0.37459,-0.453447 -0.57227,-1.15197 -0.57227,-2.107422 V 62.947266 c 0,-0.955452 0.19768,-1.653975 0.57227,-2.107422 0.37458,-0.453447 0.92938,-0.681641 1.70703,-0.681641 z m 58.75976,0 c 0.77764,0 1.33245,0.228194 1.70703,0.681641 0.37459,0.453447 0.57422,1.15197 0.57422,2.107422 v 16.169921 c 0,0.955453 -0.19963,1.653975 -0.57422,2.107422 -0.37458,0.453447 -0.92939,0.681641 -1.70703,0.681641 -0.77764,0 -1.33244,-0.228194 -1.70703,-0.681641 -0.37459,-0.453447 -0.57422,-1.15197 -0.57422,-2.107422 V 62.947266 c 0,-0.955452 0.19963,-1.653975 0.57422,-2.107422 0.37459,-0.453447 0.92939,-0.681641 1.70703,-0.681641 z m -94.23437,0.158203 -0.13282,0.132813 v 9.101562 l 0.13282,0.132813 h 2.20117 c 0.7865,0 1.39639,-0.224053 1.79297,-0.681641 0.42948,-0.462149 0.625,-1.214842 0.625,-2.246094 v -3.513672 c 0,-1.03125 -0.19552,-1.781991 -0.625,-2.24414 -0.39658,-0.457588 -1.00647,-0.681641 -1.79297,-0.681641 z m 16.34179,0 -0.13281,0.132813 v 8.466797 l 0.13281,0.130859 h 1.69336 c 0.95226,0 1.68332,-0.246941 2.16602,-0.757813 0.51646,-0.516461 0.75976,-1.358229 0.75976,-2.505859 v -2.287109 c 0,-1.086824 -0.19674,-1.890983 -0.62109,-2.408203 -3.5e-4,-4.6e-4 -0.002,4.59e-4 -0.002,0 -0.39581,-0.516557 -1.03732,-0.771485 -1.88086,-0.771485 z m -16.20898,0.263672 h 2.06836 c 0.7375,0 1.25655,0.200765 1.59375,0.589844 l 0.004,0.0039 c 0.35909,0.38474 0.55664,1.069509 0.55664,2.068359 v 3.513672 c 0,0.998851 -0.19755,1.68362 -0.55664,2.06836 l -0.004,0.0039 c -0.3372,0.389079 -0.85625,0.589844 -1.59375,0.589844 h -2.06836 z m 16.33984,0 h 1.98438 c 0.79259,0 1.33577,0.225898 1.67383,0.667969 l 0.002,0.0039 c 0.36436,0.442439 0.5625,1.187943 0.5625,2.244141 v 2.287109 c 0,1.110147 -0.23659,1.875266 -0.67969,2.318359 l -0.004,0.0039 c -0.42045,0.446723 -1.06795,0.677734 -1.97657,0.677734 h -1.5625 z"
       id="text1" /></g></svg>
