<svg width="181" height="43" viewBox="0 0 181 43" fill="none" xmlns="http://www.w3.org/2000/svg">
<path d="M27.9368 23.8845C28.0336 22.1569 28.8796 20.6349 30.1559 19.5559C31.4075 18.4961 33.0922 17.8484 34.9304 17.8484C36.7667 17.8484 38.4514 18.4961 39.7039 19.5559C40.9793 20.6349 41.8253 22.1569 41.9231 23.8827C42.0199 25.6578 41.3064 27.3069 40.0548 28.5293C38.7785 29.7727 36.9631 30.5529 34.9304 30.5529C32.8976 30.5529 31.0786 29.7727 29.8033 28.5293C28.5507 27.3069 27.839 25.6578 27.9368 23.8845Z" fill="white"/>
<path d="M16.8 27.377C16.8118 28.0531 17.0274 29.3669 17.3509 30.3928C18.0306 32.5645 19.1835 34.5734 20.7878 36.344C22.4341 38.1639 24.4614 39.6256 26.803 40.6635C29.2642 41.7534 31.931 42.3089 34.701 42.3043C37.4665 42.3007 40.1333 41.7342 42.5946 40.6361C44.9361 39.5882 46.9616 38.12 48.6051 36.2992C50.2085 34.5214 51.3596 32.5087 52.0412 30.3371C52.3838 29.2399 52.6003 28.1262 52.6871 27.0088C52.7721 25.908 52.7364 24.8052 52.5802 23.7034C52.2751 21.5565 51.5323 19.542 50.3885 17.7056C49.3424 16.0182 47.9939 14.541 46.3906 13.2975L46.3942 13.2948L30.2134 0.870743C30.1988 0.85978 30.187 0.847921 30.1714 0.837872C29.1098 0.0229408 27.3246 0.0256861 26.1571 0.842444C24.9767 1.66834 24.8415 3.03415 25.8921 3.89568L25.8875 3.90025L32.6363 9.38823L12.0666 9.41017H12.0392C10.339 9.412 8.70456 10.5275 8.38114 11.9372C8.04859 13.3734 9.20337 14.5647 10.9712 14.5711L10.9685 14.5775L21.3945 14.5574L2.7899 28.8379C2.76614 28.8552 2.74056 28.8735 2.71863 28.8909C0.963609 30.2348 0.396276 32.4694 1.50173 33.8837C2.62363 35.3217 5.00904 35.3244 6.78234 33.8919L16.9361 25.5818C16.9361 25.5818 16.7881 26.7037 16.8 27.377ZM42.8915 31.1337C40.7993 33.2652 37.8703 34.4739 34.701 34.4803C31.5272 34.4858 28.5982 33.288 26.506 31.1602C25.4837 30.1233 24.7327 28.9301 24.2696 27.6593C23.8155 26.4104 23.6392 25.0848 23.7561 23.7473C23.8667 22.4399 24.2559 21.1929 24.8771 20.0646C25.4874 18.9555 26.3279 17.9532 27.3658 17.1054C29.3994 15.4482 31.9886 14.551 34.6965 14.5473C37.4071 14.5437 39.9944 15.4326 42.0299 17.0844C43.066 17.9286 43.9056 18.9271 44.5159 20.0344C45.1398 21.1618 45.5263 22.4043 45.6414 23.7153C45.7565 25.051 45.5802 26.3748 45.1261 27.6246C44.662 28.8991 43.9138 30.0922 42.8915 31.1337Z" fill="white"/>
<path d="M138.79 23.8585C138.947 22.1154 140.294 21.0099 142.352 21.0099C144.413 21.0099 145.76 22.1154 145.916 23.8585H138.79ZM145.705 28.1625C145.178 29.4543 143.936 30.219 142.248 30.219C140.135 30.219 138.713 28.8998 138.655 26.8159H150.803V26.2028C150.803 20.9825 147.739 18.049 142.248 18.049C136.916 18.049 133.692 21.0099 133.692 25.6538C133.692 30.3259 136.967 33.2823 142.248 33.2823C145.418 33.2823 147.875 32.1961 149.39 30.2866L145.705 28.1625Z" fill="white"/>
<path d="M84.8887 23.8646C85.0495 22.1214 86.3971 21.0159 88.4572 21.0159C90.5147 21.0159 91.8613 22.1214 92.0194 23.8646H84.8887ZM91.8083 28.1685C91.2803 29.464 90.0387 30.2287 88.3476 30.2287C86.2381 30.2287 84.812 28.9058 84.7563 26.821H96.9017V26.2116C96.9017 20.9885 93.8384 18.0541 88.3476 18.0541C83.0131 18.0541 79.7954 21.0159 79.7954 25.6598C79.7954 30.3319 83.0679 33.2883 88.3476 33.2883C91.516 33.2883 93.9754 32.2057 95.4929 30.2935L91.8083 28.1685Z" fill="white"/>
<path d="M78.7072 14.8906H74.3265V32.8127H78.7072V14.8906Z" fill="white"/>
<path d="M97.9915 19.6526H102.397V20.7196C103.956 19.0551 105.829 18.2136 107.941 18.2136C110.374 18.2136 112.216 19.0551 113.167 20.4876C113.961 21.6707 114.013 23.0986 114.013 24.9752V32.813H109.601V25.9262C109.601 23.0685 109.027 21.7492 106.518 21.7492C103.983 21.7492 102.397 23.2594 102.397 25.7947V32.813H97.9915V19.6526Z" fill="white"/>
<path d="M128.201 25.8737C128.201 28.3267 126.562 29.9356 124.025 29.9356C121.487 29.9356 119.848 28.3815 119.848 25.902C119.848 23.386 121.466 21.8329 124.025 21.8329C126.562 21.8329 128.201 23.4134 128.201 25.8737ZM128.201 20.2487C127.087 19.0546 125.475 18.3996 123.235 18.3996C118.402 18.3996 115.102 21.3797 115.102 25.8463C115.102 30.2252 118.379 33.2885 123.156 33.2885C125.346 33.2885 126.954 32.7348 128.201 31.4933V32.8125H132.609V13.7539L128.201 14.8904V20.2487Z" fill="white"/>
<path d="M64.3135 21.8329C66.8752 21.8329 68.4859 23.386 68.4859 25.902C68.4859 28.3815 66.8497 29.9356 64.3135 29.9356C61.7792 29.9356 60.142 28.3267 60.142 25.8737C60.142 23.4134 61.7792 21.8329 64.3135 21.8329ZM60.142 14.8904L55.7321 13.7539V32.8125H60.142V31.4933C61.3827 32.7348 62.9934 33.2885 65.1851 33.2885C69.9641 33.2885 73.2366 30.2252 73.2366 25.8463C73.2366 21.3797 69.9358 18.3996 65.1056 18.3996C62.8609 18.3996 61.2502 19.0546 60.142 20.2487V14.8904Z" fill="white"/>
<path d="M151.891 32.8131V19.6527H156.299V20.4658C157.619 18.8761 159.016 18.085 160.604 18.085C160.92 18.085 161.316 18.1361 161.843 18.1882V21.9404C161.418 21.8846 160.945 21.8846 160.443 21.8846C157.88 21.8846 156.299 23.5748 156.299 26.449V32.8131H151.891Z" fill="white"/>
<path d="M167.648 18.4427V12.6981H169.381C170.088 12.6981 170.606 12.8483 170.936 13.1488C171.266 13.4493 171.431 13.8809 171.431 14.4437C171.431 14.8542 171.328 15.1779 171.12 15.4149C170.913 15.6477 170.678 15.8169 170.416 15.9227L171.926 18.4427H170.746L169.508 16.2592H168.702V18.4427H167.648ZM168.702 15.3895H169.349C169.688 15.3895 169.942 15.3049 170.111 15.1356C170.28 14.9621 170.365 14.7399 170.365 14.4691C170.365 14.1602 170.287 13.938 170.13 13.8026C169.978 13.663 169.713 13.5931 169.337 13.5931H168.702V15.3895ZM169.495 20.3661C168.805 20.3661 168.169 20.2497 167.585 20.017C167.005 19.78 166.499 19.4478 166.068 19.0204C165.64 18.593 165.308 18.0894 165.071 17.5096C164.838 16.9257 164.722 16.2888 164.722 15.599C164.722 14.9388 164.84 14.321 165.077 13.7455C165.318 13.1657 165.655 12.6579 166.087 12.222C166.522 11.7862 167.03 11.4455 167.61 11.2001C168.19 10.9504 168.818 10.8256 169.495 10.8256C170.155 10.8256 170.773 10.9441 171.349 11.181C171.929 11.4138 172.436 11.746 172.872 12.1776C173.308 12.605 173.649 13.1086 173.894 13.6884C174.144 14.2681 174.269 14.905 174.269 15.599C174.269 16.2888 174.15 16.9257 173.913 17.5096C173.68 18.0894 173.348 18.593 172.917 19.0204C172.489 19.4478 171.986 19.78 171.406 20.017C170.826 20.2497 170.189 20.3661 169.495 20.3661ZM169.495 19.5345C170.028 19.5345 170.528 19.4393 170.993 19.2489C171.459 19.0542 171.869 18.7813 172.225 18.4301C172.58 18.0788 172.857 17.6641 173.056 17.1859C173.255 16.7035 173.355 16.1745 173.355 15.599C173.355 15.0573 173.257 14.5474 173.063 14.0692C172.868 13.591 172.595 13.17 172.244 12.806C171.897 12.4421 171.488 12.1586 171.019 11.9554C170.553 11.7481 170.045 11.6444 169.495 11.6444C168.941 11.6444 168.427 11.7417 167.953 11.9364C167.483 12.1311 167.073 12.4061 166.721 12.7616C166.37 13.1128 166.097 13.5297 165.902 14.0121C165.708 14.4945 165.61 15.0235 165.61 15.599C165.61 16.1745 165.706 16.7035 165.896 17.1859C166.087 17.6641 166.355 18.0788 166.702 18.4301C167.049 18.7813 167.46 19.0542 167.934 19.2489C168.408 19.4393 168.928 19.5345 169.495 19.5345Z" fill="white"/>
</svg>
