<?xml version="1.0" encoding="UTF-8" standalone="no"?>
<svg
   version="1.1"
   width="57.761169"
   height="65"
   id="svg1"
   xmlns="http://www.w3.org/2000/svg"
   xmlns:svg="http://www.w3.org/2000/svg">
  <defs
     id="defs1" />
  <path
     d="M 55.260109,14.381768 31.381709,0.59572526 c -1.3755,-0.7943 -3.62668,-0.7943 -5.00219,0 L 2.5011286,14.381768 C 1.1254186,15.175897 2.8613281e-5,17.125431 2.8613281e-5,18.713859 V 46.28614 C 0.10704861,48.136019 1.0519086,49.668085 2.5011286,50.618223 l 23.8783904,13.78604 c 1.37551,0.794316 3.62669,0.794316 5.00219,0 l 23.8784,-13.78604 c 1.55491,-1.034195 2.43995,-2.590813 2.50109,-4.332083 V 18.713859 c -0.0559,-1.671299 -1.05673,-3.356988 -2.50109,-4.332091 z M 9.6268886,32.500089 C 9.5137486,13.699752 34.694949,5.3982583 45.554149,22.867187 l -8.33252,4.821739 c -5.03007,-8.319699 -17.51963,-5.344878 -17.96787,4.811163 0.13461,9.360134 12.41012,13.708171 17.96844,4.810608 l 8.33252,4.821541 C 35.984599,58.745713 10.109539,52.768452 9.6268886,32.500089 Z m 38.5074504,1.069528 h -2.13942 v 2.139435 h -2.13906 v -2.139435 h -2.13943 v -2.139243 h 2.13943 v -2.13923 h 2.13906 v 2.13923 h 2.13942 z m 8.02239,0 h -2.13943 v 2.139435 h -2.13904 v -2.139435 h -2.13944 v -2.139243 h 2.13944 v -2.13923 h 2.13904 v 2.13923 h 2.13943 z"
     id="path1"
     style="fill:#ffffff;stroke-width:0.126953" />
</svg>
