<svg width="34" height="50" viewBox="0 0 34 50" fill="none" xmlns="http://www.w3.org/2000/svg">
<g clip-path="url(#clip0_14_175)">
<path d="M17.0002 24.9728C17.0002 22.8093 17.8597 20.7343 19.3896 19.2045C20.9194 17.6746 22.9943 16.8152 25.1579 16.8152C27.3214 16.8152 29.3963 17.6746 30.9262 19.2045C32.456 20.7343 33.3155 22.8093 33.3155 24.9728C33.3155 27.1363 32.456 29.2112 30.9262 30.7411C29.3963 32.2709 27.3214 33.1304 25.1579 33.1304C22.9943 33.1304 20.9194 32.2709 19.3896 30.7411C17.8597 29.2112 17.0002 27.1363 17.0002 24.9728Z" fill="white"/>
<path d="M0.685059 41.2881C0.685059 39.1246 1.54452 37.0497 3.07437 35.5198C4.60422 33.99 6.67914 33.1305 8.84267 33.1305H17.0003V41.2881C17.0003 43.4516 16.1408 45.5266 14.611 47.0564C13.0811 48.5863 11.0062 49.4457 8.84267 49.4457C6.67914 49.4457 4.60422 48.5863 3.07437 47.0564C1.54452 45.5266 0.685059 43.4516 0.685059 41.2881Z" fill="white"/>
<path d="M17.0002 0.5V16.8152H25.1579C27.3214 16.8152 29.3963 15.9558 30.9262 14.4259C32.456 12.8961 33.3155 10.8211 33.3155 8.65761C33.3155 6.49408 32.456 4.41916 30.9262 2.88931C29.3963 1.35946 27.3214 0.5 25.1579 0.5L17.0002 0.5Z" fill="white"/>
<path d="M0.685059 8.65761C0.685059 10.8211 1.54452 12.8961 3.07437 14.4259C4.60422 15.9558 6.67914 16.8152 8.84267 16.8152H17.0003V0.5H8.84267C6.67914 0.5 4.60422 1.35946 3.07437 2.88931C1.54452 4.41916 0.685059 6.49408 0.685059 8.65761H0.685059Z" fill="white"/>
<path d="M0.685059 24.9728C0.685059 27.1363 1.54452 29.2112 3.07437 30.7411C4.60422 32.2709 6.67914 33.1304 8.84267 33.1304H17.0003V16.8152H8.84267C6.67914 16.8152 4.60422 17.6746 3.07437 19.2045C1.54452 20.7343 0.685059 22.8093 0.685059 24.9728H0.685059Z" fill="white"/>
</g>
<defs>
<clipPath id="clip0_14_175">
<rect width="32.6304" height="48.9457" fill="white" transform="translate(0.685059 0.5)"/>
</clipPath>
</defs>
</svg>
