<?xml version="1.0" encoding="UTF-8" standalone="no"?>
<svg
   width="58.036243"
   height="65"
   viewBox="0 0 58.036243 65"
   fill="none"
   version="1.1"
   id="svg1"
   sodipodi:docname="html.svg"
   inkscape:version="1.3.2 (091e20e, 2023-11-25, custom)"
   xmlns:inkscape="http://www.inkscape.org/namespaces/inkscape"
   xmlns:sodipodi="http://sodipodi.sourceforge.net/DTD/sodipodi-0.dtd"
   xmlns="http://www.w3.org/2000/svg"
   xmlns:svg="http://www.w3.org/2000/svg">
  <defs
     id="defs1" />
  <sodipodi:namedview
     id="namedview1"
     pagecolor="#ffffff"
     bordercolor="#999999"
     borderopacity="1"
     inkscape:showpageshadow="2"
     inkscape:pageopacity="0"
     inkscape:pagecheckerboard="0"
     inkscape:deskcolor="#d1d1d1"
     inkscape:zoom="4.422137"
     inkscape:cx="-48.05369"
     inkscape:cy="52.350255"
     inkscape:window-width="1920"
     inkscape:window-height="1009"
     inkscape:window-x="-8"
     inkscape:window-y="-8"
     inkscape:window-maximized="1"
     inkscape:current-layer="svg1" />
  <path
     d="M 57.665325,0.45812677 C 57.400389,0.16558864 57.019605,0 56.622145,0 H 1.4141224 c -0.39743,0 -0.77828004,0.16558864 -1.04322004,0.45812677 -0.27047,0.29254953 -0.40295,0.68444643 -0.36431,1.08186253 L 4.9798054,57.250351 c 0.0497,0.585055 0.458128,1.070827 1.021131,1.236371 l 22.6252546,6.45809 c 0.121444,0.03862 0.253966,0.05519 0.38638,0.05519 0.132523,0 0.259451,-0.01656 0.386379,-0.05519 l 22.641821,-6.45809 c 0.563004,-0.165544 0.965949,-0.651316 1.021131,-1.236371 L 58.029655,1.5399893 c 0.03862,-0.3974161 -0.0938,-0.789313 -0.36433,-1.08186253 z M 45.759416,19.666655 H 19.176457 l 0.63486,7.192233 H 45.11907 l -1.898766,21.256363 -14.213218,4.294276 -0.138008,-0.04411 -14.047565,-4.255769 -0.767273,-8.66041 h 6.883085 l 0.298068,3.361567 7.85452,1.644802 7.711026,-1.644802 0.822455,-9.096485 H 13.540933 L 11.6697,12.794647 h 34.702416 z"
     fill="#ffffff"
     id="path1"
     style="stroke-width:1.09705" />
</svg>
