<svg width="71" height="69" viewBox="0 0 71 69" fill="none" xmlns="http://www.w3.org/2000/svg">
<mask id="mask0_14_137" style="mask-type:luminance" maskUnits="userSpaceOnUse" x="0" y="0" width="70" height="68">
<path d="M28.4526 2.38965L3.07827 28.3717C-6.52949 37.9765 9.29868 37.1761 15.0264 40.8087C17.6747 42.5326 6.52721 44.7491 8.80598 47.0271C11.0232 49.3052 22.1706 51.3985 24.3878 53.615C26.605 55.8931 19.8919 58.2942 22.109 60.5723C24.2646 62.8503 29.438 60.6954 30.3619 65.8672C31.0393 69.6845 39.8464 67.7759 43.7881 64.5127C46.2516 62.4194 39.5385 62.4194 41.7557 60.1413C47.2986 54.5385 52.2257 57.617 54.2581 52.4452C55.3667 49.6746 45.8821 47.7044 48.4072 45.9189C54.4428 41.6706 76.6146 39.5157 66.3909 29.2953L40.0928 2.38965C36.8286 -0.688801 31.4704 -0.688801 28.4526 2.38965ZM22.3554 42.2247C22.9097 42.2247 41.3246 44.6875 34.2419 46.5961C31.532 47.335 19.0912 42.2247 22.3554 42.2247ZM57.5838 52.4452C57.5838 53.7381 67.6227 54.477 67.0684 52.1374C66.2678 48.1969 58.6924 48.5048 57.5838 52.4452ZM14.78 59.2793C17.0588 61.2496 20.5077 58.8484 21.6163 56.0778C19.3991 53.184 11.2079 56.2625 14.78 59.2793ZM56.3521 55.1542C53.519 57.7401 56.8448 60.4492 59.6162 58.6637C60.3553 58.1711 59.5547 55.7699 56.3521 55.1542Z" fill="white"/>
</mask>
<g mask="url(#mask0_14_137)">
<path d="M28.4526 2.38965L3.07827 28.3717C-6.52949 37.9765 9.29868 37.1761 15.0264 40.8087C17.6747 42.5326 6.52721 44.7491 8.80598 47.0271C11.0232 49.3052 22.1706 51.3985 24.3878 53.615C26.605 55.8931 19.8919 58.2942 22.109 60.5723C24.2646 62.8503 29.438 60.6954 30.3619 65.8672C31.0393 69.6845 39.8464 67.7759 43.7881 64.5127C46.2516 62.4194 39.5385 62.4194 41.7557 60.1413C47.2986 54.5385 52.2257 57.617 54.2581 52.4452C55.3667 49.6746 45.8821 47.7044 48.4072 45.9189C54.4428 41.6706 76.6146 39.5157 66.3909 29.2953L40.0928 2.38965C36.8286 -0.688801 31.4704 -0.688801 28.4526 2.38965ZM22.3554 42.2247C22.9097 42.2247 41.3246 44.6875 34.2419 46.5961C31.532 47.335 19.0912 42.2247 22.3554 42.2247ZM57.5838 52.4452C57.5838 53.7381 67.6227 54.477 67.0684 52.1374C66.2678 48.1969 58.6924 48.5048 57.5838 52.4452ZM14.78 59.2793C17.0588 61.2496 20.5077 58.8484 21.6163 56.0778C19.3991 53.184 11.2079 56.2625 14.78 59.2793ZM56.3521 55.1542C53.519 57.7401 56.8448 60.4492 59.6162 58.6637C60.3553 58.1711 59.5547 55.7699 56.3521 55.1542Z" fill="white"/>
</g>
<path opacity="0.5" d="M5.05663 29.7718C-1.90831 36.6718 10.3274 34.7272 19.7395 38.4282L39.1911 4.24166C36.242 1.23074 32.4771 1.48165 29.779 4.24166L5.05663 29.7718Z" fill="white"/>
<path d="M38.5913 3.95235L48.726 14.2704C49.6586 15.2027 49.6586 17.1296 49.099 17.689L44.0628 13.5866L43.0679 19.6158L38.9021 17.3782L32.1249 21.667L29.8866 12.6543L26.2804 20.486L17.2648 20.4239C15.5239 20.4239 15.7726 18.6213 17.5757 16.8188C21.1198 12.9029 28.0213 6.25215 30.1975 3.95235C32.4358 1.65255 36.3529 1.71471 38.5913 3.95235Z" fill="white"/>
<path opacity="0.216749" fill-rule="evenodd" clip-rule="evenodd" d="M24.6813 52.6951C24.6813 52.6951 25.7814 54.3743 25.6692 55.1642C25.4492 56.7143 22.1095 57.4879 22.8495 58.8678C23.5805 60.2311 26.2155 59.4584 28.4272 60.8842C30.6295 62.3039 30.0374 65.1974 31.6381 65.9253C34.7597 67.3448 42.9583 63.4768 42.5466 63.5591C42.135 63.6414 34.4553 65.2365 32.7264 63.8374C30.7551 62.2421 30.19 61.1279 28.736 60.1846C27.3734 59.3007 25.4594 58.9401 25.0139 58.2164C24.5684 57.4927 25.9061 56.5589 25.9985 55.1642C26.0541 54.3265 24.6813 52.6951 24.6813 52.6951Z" fill="white"/>
<g opacity="0.275862" filter="url(#filter0_f_14_137)">
<path fill-rule="evenodd" clip-rule="evenodd" d="M24.6813 52.6951C24.6813 52.6951 25.7814 54.3743 25.6692 55.1642C25.4492 56.7143 22.1095 57.4879 22.8495 58.8678C23.5805 60.2311 26.2155 59.4584 28.4272 60.8842C30.6295 62.3039 30.0374 65.1974 31.6381 65.9253C34.7597 67.3448 42.9583 63.4768 42.5466 63.5591C28.9329 63.6109 31.4734 60.1041 26.225 57.7979C25.4665 57.4646 25.9061 56.5589 25.9985 55.1642C26.0541 54.3265 24.6813 52.6951 24.6813 52.6951Z" fill="white"/>
</g>
<path opacity="0.453202" fill-rule="evenodd" clip-rule="evenodd" d="M47.8158 45.5348C60.0346 41.0395 63.96 40.4219 67.9863 36.3992C63.323 40.3345 53.464 42.4454 45.4282 45.9463L47.8158 45.5348Z" fill="white"/>
<g opacity="0.512315" filter="url(#filter1_f_14_137)">
<path fill-rule="evenodd" clip-rule="evenodd" d="M47.8158 44.9586C67.9381 37.8297 64.5363 37.8705 67.9863 35.823C61.5885 38.2712 49.6321 38.5323 45.4282 45.3701L47.8158 44.9586Z" fill="white"/>
</g>
<path opacity="0.285714" d="M65.3929 50.6582C65.3929 51.1014 64.2226 51.4606 62.779 51.4606C61.3353 51.4606 60.165 51.1014 60.165 50.6582C60.165 50.215 61.3353 49.8557 62.779 49.8557C64.2226 49.8557 65.3929 50.215 65.3929 50.6582Z" fill="white"/>
<g opacity="0.620689" filter="url(#filter2_f_14_137)">
<path d="M66.2984 51.5841C66.2984 52.5386 64.7226 53.3124 62.7788 53.3124C60.835 53.3124 59.2593 52.5386 59.2593 51.5841C59.2593 50.6295 60.835 49.8557 62.7788 49.8557C64.7226 49.8557 66.2984 50.6295 66.2984 51.5841Z" fill="white"/>
</g>
<g filter="url(#filter3_f_14_137)">
<path fill-rule="evenodd" clip-rule="evenodd" d="M57.9832 52.5447C59.2245 53.6917 66.1356 54.2803 67.2657 52.2155C65.0473 53.7904 60.1141 53.2369 57.9832 52.5447Z" fill="white"/>
</g>
<path opacity="0.285714" d="M58.0078 56.3731C58.2613 56.8729 58.0968 57.4657 57.6403 57.6971C57.1838 57.9284 56.6082 57.7108 56.3547 57.211C56.1013 56.7112 56.2658 56.1185 56.7223 55.8871C57.1788 55.6557 57.7543 55.8733 58.0078 56.3731Z" fill="white"/>
<g opacity="0.620689" filter="url(#filter4_f_14_137)">
<path d="M58.4978 56.595C58.8769 57.3424 58.6441 58.2221 57.9777 58.5599C57.3114 58.8976 56.464 58.5655 56.0849 57.818C55.7058 57.0705 55.9386 56.1908 56.6049 55.8531C57.2712 55.5154 58.1187 55.8475 58.4978 56.595Z" fill="white"/>
</g>
<g filter="url(#filter5_f_14_137)">
<path fill-rule="evenodd" clip-rule="evenodd" d="M56.2881 58.692C57.2857 59.4724 61.0404 59.5724 59.6159 57.3041C59.9874 59.0807 57.423 58.8929 56.2881 58.692Z" fill="white"/>
</g>
<path fill-rule="evenodd" clip-rule="evenodd" d="M9.94434 46.9339C9.94434 46.7296 22.737 50.8312 24.9282 53.0243C23.1264 51.2668 14.0082 47.2249 12.62 47.1808C11.2319 47.1367 10.109 47.0162 9.94434 46.9339Z" fill="white"/>
<path opacity="0.285714" d="M19.5548 55.7201C19.6585 56.0285 18.7138 56.5043 17.4448 56.7829C16.1758 57.0614 15.0631 57.0372 14.9594 56.7287C14.8558 56.4203 15.8004 55.9445 17.0694 55.666C18.3384 55.3874 19.4511 55.4117 19.5548 55.7201Z" fill="white"/>
<g opacity="0.620689" filter="url(#filter6_f_14_137)">
<path d="M20.5673 56.1897C20.7906 56.854 19.5865 57.6965 17.8779 58.0716C16.1692 58.4466 14.6031 58.2121 14.3799 57.5478C14.1566 56.8835 15.3607 56.041 17.0693 55.6659C18.778 55.2909 20.3441 55.5254 20.5673 56.1897Z" fill="white"/>
</g>
<g opacity="0.615763" filter="url(#filter7_f_14_137)">
<path fill-rule="evenodd" clip-rule="evenodd" d="M14.0403 57.798C14.0403 57.798 14.733 59.6583 16.6336 59.7526C18.5565 59.8482 20.7511 57.4459 20.9353 56.584C20.606 57.3247 18.765 59.5579 16.3867 59.5263C15.0365 59.5085 14.0403 57.798 14.0403 57.798Z" fill="white"/>
</g>
<path d="M34.1806 0.669678C32.2543 0.669678 30.3663 1.3671 29.0316 2.72862L3.42282 28.951C1.0815 31.2916 0.519046 32.8238 0.663755 33.6904C0.73611 34.1237 0.948894 34.5003 1.4021 34.8947C1.8553 35.2891 2.54085 35.6756 3.36453 36.0213C5.01189 36.7126 7.23062 37.2694 9.40727 37.8666C11.5839 38.4637 13.716 39.0939 15.3334 40.1197C15.58 40.2803 15.8116 40.4781 15.9746 40.7607C16.1376 41.0434 16.1949 41.4172 16.1301 41.7319C16.0005 42.3615 15.6128 42.6935 15.2169 42.9945C14.4251 43.5965 13.3371 44.0967 12.2441 44.6261C11.151 45.1555 10.0524 45.6972 9.50443 46.1412C9.23044 46.3632 9.1313 46.5627 9.13525 46.5491C9.13898 46.5355 9.0626 46.3793 9.19351 46.5102C9.53658 46.8627 10.6074 47.4663 11.972 48.0059C13.3366 48.5455 15.0066 49.0909 16.6935 49.6375C18.3804 50.1841 20.0868 50.7252 21.5316 51.2885C22.9764 51.8518 24.154 52.3756 24.9318 53.1532C25.319 53.551 25.5926 54.0458 25.6508 54.5518C25.709 55.0577 25.5719 55.5326 25.3787 55.9309C24.9924 56.7273 24.3713 57.3401 23.8049 57.9316C23.2385 58.523 22.7254 59.0879 22.542 59.466C22.4502 59.6551 22.436 59.7783 22.4448 59.8545C22.4536 59.9307 22.4667 60.0075 22.6391 60.1847C22.6457 60.1911 22.6522 60.1976 22.6586 60.2041C23.4007 60.9884 25.0132 61.0987 26.836 61.525C27.7474 61.7381 28.7006 62.0607 29.5174 62.7681C30.3341 63.4754 30.9471 64.5524 31.2078 66.0119C31.3175 66.6301 31.6447 66.9311 32.4319 67.1774C33.219 67.4236 34.418 67.4667 35.735 67.2745C38.369 66.8899 41.4925 65.5991 43.2933 64.1083C43.4052 64.0133 43.3741 64.0384 43.4098 63.9918C43.2887 63.9052 43.0047 63.7205 42.5355 63.4867C41.9812 63.2107 41.3264 62.9525 40.8257 62.3213C40.5753 62.0057 40.4029 61.5075 40.4759 61.0199C40.5489 60.5324 40.8159 60.1267 41.1754 59.7573C44.1261 56.7748 47.0336 56.0627 49.2194 55.4841C50.3124 55.1948 51.2273 54.9301 51.9202 54.4935C52.6131 54.0568 53.1545 53.4594 53.6106 52.2986C53.6609 52.1729 53.6595 52.1364 53.5912 51.9878C53.5229 51.8391 53.3397 51.6013 53.0471 51.3468C52.462 50.8377 51.4863 50.2906 50.5212 49.754C49.5562 49.2174 48.6184 48.7171 47.937 48.0836C47.5964 47.7668 47.2394 47.3678 47.1987 46.7627C47.158 46.1577 47.5547 45.6118 48.0148 45.2865C49.722 44.0849 52.3026 43.1701 55.1067 42.1981C57.9109 41.2261 60.9271 40.2202 63.3839 39.0709C65.8408 37.9215 67.6475 36.5978 68.222 35.2638C68.5092 34.5967 68.5619 33.922 68.2612 33.0494C67.9601 32.1768 67.2728 31.1096 66.0461 29.8833L39.5238 2.74804C39.5172 2.74176 39.5111 2.73486 39.5044 2.72865C38.0385 1.35639 36.0982 0.669678 34.1806 0.669678ZM62.7428 50.395C61.1043 50.4541 59.5969 51.2039 58.9539 52.3763C59.1366 52.445 59.3011 52.5223 59.595 52.5899C60.4504 52.7866 61.6441 52.9136 62.8205 52.9396C63.9969 52.9655 65.1733 52.8665 65.8904 52.6676C66.2043 52.5806 66.3706 52.4925 66.4539 52.4345C66.2948 51.7564 65.9161 51.2771 65.2686 50.9195C64.598 50.549 63.679 50.3612 62.7428 50.395ZM18.9086 56.028C17.6092 55.9376 15.976 56.4547 15.178 57.0963C14.779 57.4171 14.6102 57.7144 14.5951 57.9121C14.58 58.1098 14.6432 58.3733 15.178 58.825C15.1781 58.8314 15.1781 58.8378 15.178 58.8443C16.0191 59.5715 16.9701 59.4957 18.0536 58.9027C18.962 58.4055 19.768 57.4726 20.3075 56.4941C19.9438 56.2596 19.5089 56.0697 18.9086 56.028ZM56.836 56.4165C56.5579 56.7698 56.4064 57.0989 56.3891 57.3294C56.3652 57.6474 56.4554 57.8933 56.7 58.1257C57.1584 58.5614 58.1544 58.749 59.1676 58.2034C59.1478 58.0859 59.1098 57.9076 58.9539 57.679C58.6431 57.2227 57.9164 56.7311 56.836 56.4165Z" fill="white"/>
<path fill-rule="evenodd" clip-rule="evenodd" d="M20.7108 43.1316C22.0985 44.1505 24.8373 43.5359 26.482 44.2764C30.4299 46.0536 35.283 48.034 34.39 44.5278L33.3853 45.362L33.3657 43.7723L31.0329 44.3419C31.0329 44.3419 29.226 42.8919 28.3976 42.4138C28.2245 42.3139 27.3358 43.2173 27.3358 43.2173L27.176 42.2578C26.0212 42.1349 24.8779 42.0807 23.8713 42.0888C21.4582 42.1081 19.8304 42.4852 20.7108 43.1316Z" fill="white"/>
<g opacity="0.477832" filter="url(#filter8_f_14_137)">
<path fill-rule="evenodd" clip-rule="evenodd" d="M46.6293 46.3625C46.095 48.3288 53.1957 51.0002 52.6635 52.357C51.4919 55.3441 45.0806 53.3093 40.1776 59.5655C39.4753 60.4616 41.1643 63.6629 40.9366 63.2835C40.7089 62.9041 38.9738 60.2596 39.4185 58.9584C40.8134 54.8776 54.2993 53.3563 51.8286 51.4085C50.4077 50.2883 45.2993 47.1935 46.6293 46.3625Z" fill="white"/>
</g>
<path opacity="0.586207" d="M62.6068 50.4031C62.6068 50.5812 62.2585 50.7255 61.8288 50.7255C61.3991 50.7255 61.0508 50.5812 61.0508 50.4031C61.0508 50.2249 61.3991 50.0806 61.8288 50.0806C62.2585 50.0806 62.6068 50.2249 62.6068 50.4031Z" fill="white"/>
<path opacity="0.586207" d="M57.4074 56.3596C57.4074 56.5377 57.1865 56.6821 56.914 56.6821C56.6415 56.6821 56.4207 56.5377 56.4207 56.3596C56.4207 56.1815 56.6415 56.0371 56.914 56.0371C57.1865 56.0371 57.4074 56.1815 57.4074 56.3596Z" fill="white"/>
<path opacity="0.586207" d="M18.0519 56.075C18.0519 56.2532 17.6611 56.3975 17.179 56.3975C16.697 56.3975 16.3062 56.2532 16.3062 56.075C16.3062 55.8969 16.697 55.7526 17.179 55.7526C17.6611 55.7526 18.0519 55.8969 18.0519 56.075Z" fill="white"/>
<path opacity="0.251231" d="M17.5585 41.8857C13.111 44.6356 6.19638 45.6364 13.7633 47.4628C12.862 45.4564 15.7148 45.6777 17.5585 41.8857Z" fill="white"/>
<path d="M33.3464 66.9257C33.3464 66.9257 40.2055 66.2799 41.7922 64.3014C42.7205 63.1439 38.1029 61.7932 39.0997 60.6592C42.8493 56.3936 46.001 56.5717 50.3486 54.7851C54.6961 52.9986 53.0918 52.1236 51.6856 51.3391C49.2772 49.9957 43.9171 48.5643 45.6902 45.3761C47.4745 42.168 63.1002 37.7124 63.1002 37.7124C67.8354 36.0951 67.2412 33.1704 64.9219 30.7315L50.9558 16.8457C50.9558 16.8457 51.6489 30.0148 48.8305 35.6636C45.3476 42.6442 26.8054 50.4332 34.5608 51.2947C37.2933 51.5982 38.6051 52.5301 39.7222 54.6333C42.0224 58.9641 33.3464 66.9257 33.3464 66.9257Z" fill="#630000"/>
<defs>
<filter id="filter0_f_14_137" x="20.6761" y="50.6285" width="23.952" height="17.6767" filterUnits="userSpaceOnUse" color-interpolation-filters="sRGB">
<feFlood flood-opacity="0" result="BackgroundImageFix"/>
<feBlend mode="normal" in="SourceGraphic" in2="BackgroundImageFix" result="shape"/>
<feGaussianBlur stdDeviation="1.03329" result="effect1_foregroundBlur_14_137"/>
</filter>
<filter id="filter1_f_14_137" x="43.191" y="33.5858" width="27.0325" height="14.0216" filterUnits="userSpaceOnUse" color-interpolation-filters="sRGB">
<feFlood flood-opacity="0" result="BackgroundImageFix"/>
<feBlend mode="normal" in="SourceGraphic" in2="BackgroundImageFix" result="shape"/>
<feGaussianBlur stdDeviation="1.11861" result="effect1_foregroundBlur_14_137"/>
</filter>
<filter id="filter2_f_14_137" x="58.2434" y="48.8398" width="9.07079" height="5.48839" filterUnits="userSpaceOnUse" color-interpolation-filters="sRGB">
<feFlood flood-opacity="0" result="BackgroundImageFix"/>
<feBlend mode="normal" in="SourceGraphic" in2="BackgroundImageFix" result="shape"/>
<feGaussianBlur stdDeviation="0.507932" result="effect1_foregroundBlur_14_137"/>
</filter>
<filter id="filter3_f_14_137" x="57.1171" y="51.3494" width="11.0146" height="3.10311" filterUnits="userSpaceOnUse" color-interpolation-filters="sRGB">
<feFlood flood-opacity="0" result="BackgroundImageFix"/>
<feBlend mode="normal" in="SourceGraphic" in2="BackgroundImageFix" result="shape"/>
<feGaussianBlur stdDeviation="0.433034" result="effect1_foregroundBlur_14_137"/>
</filter>
<filter id="filter4_f_14_137" x="55.2351" y="55.053" width="4.11257" height="4.30703" filterUnits="userSpaceOnUse" color-interpolation-filters="sRGB">
<feFlood flood-opacity="0" result="BackgroundImageFix"/>
<feBlend mode="normal" in="SourceGraphic" in2="BackgroundImageFix" result="shape"/>
<feGaussianBlur stdDeviation="0.333991" result="effect1_foregroundBlur_14_137"/>
</filter>
<filter id="filter5_f_14_137" x="55.7186" y="56.7346" width="4.78545" height="3.02947" filterUnits="userSpaceOnUse" color-interpolation-filters="sRGB">
<feFlood flood-opacity="0" result="BackgroundImageFix"/>
<feBlend mode="normal" in="SourceGraphic" in2="BackgroundImageFix" result="shape"/>
<feGaussianBlur stdDeviation="0.284742" result="effect1_foregroundBlur_14_137"/>
</filter>
<filter id="filter6_f_14_137" x="13.5275" y="54.6614" width="7.89221" height="4.41455" filterUnits="userSpaceOnUse" color-interpolation-filters="sRGB">
<feFlood flood-opacity="0" result="BackgroundImageFix"/>
<feBlend mode="normal" in="SourceGraphic" in2="BackgroundImageFix" result="shape"/>
<feGaussianBlur stdDeviation="0.412872" result="effect1_foregroundBlur_14_137"/>
</filter>
<filter id="filter7_f_14_137" x="13.3388" y="55.8825" width="8.29797" height="4.57433" filterUnits="userSpaceOnUse" color-interpolation-filters="sRGB">
<feFlood flood-opacity="0" result="BackgroundImageFix"/>
<feBlend mode="normal" in="SourceGraphic" in2="BackgroundImageFix" result="shape"/>
<feGaussianBlur stdDeviation="0.350737" result="effect1_foregroundBlur_14_137"/>
</filter>
<filter id="filter8_f_14_137" x="38.1384" y="45.155" width="15.7613" height="19.3672" filterUnits="userSpaceOnUse" color-interpolation-filters="sRGB">
<feFlood flood-opacity="0" result="BackgroundImageFix"/>
<feBlend mode="normal" in="SourceGraphic" in2="BackgroundImageFix" result="shape"/>
<feGaussianBlur stdDeviation="0.603789" result="effect1_foregroundBlur_14_137"/>
</filter>
</defs>
</svg>
