<?xml version="1.0" encoding="UTF-8" standalone="no"?>
<svg
   viewBox="0 0 60.597291 81.933258"
   version="1.1"
   id="svg5"
   width="60.59729"
   height="81.933258"
   xmlns="http://www.w3.org/2000/svg"
   xmlns:svg="http://www.w3.org/2000/svg">
  <defs
     id="defs5" />
  <path
     fill="#0074bd"
     d="m 19.63098,63.18425 c 0,0 -3.1041,1.806325 2.212,2.415813 6.44129,0.735813 9.73292,0.630324 16.82929,-0.71107 0,0 1.86948,1.168837 4.47544,2.182046 C 27.23395,73.88871 7.1332201,66.675784 19.63098,63.18425 Z m -1.94567,-8.898135 c 0,0 -3.48242,2.577952 1.83823,3.128836 6.88083,0.710417 12.31348,0.768371 21.71887,-1.04186 0,0 1.29776,1.318603 3.34176,2.038789 -19.23663,5.626044 -40.6624799,0.44279 -26.89886,-4.125765 z"
     id="path1"
     style="fill:#ffffff;stroke:#ffffff;stroke-width:0.651163" />
  <path
     fill="#ea2d2e"
     d="m 34.07702,39.189563 c 3.92325,4.515813 -1.02884,8.575811 -1.02884,8.575811 0,0 9.95562,-5.138323 5.38446,-11.575715 -4.27098,-6.000463 -7.54502,-8.980834 10.18093,-19.261387 0,6.51e-4 -27.82482,6.947904 -14.53655,22.261291 z"
     id="path2"
     style="fill:#ffffff;stroke:#ffffff;stroke-width:0.651163" />
  <path
     fill="#0074bd"
     d="m 55.12324,69.766851 c 0,0 2.29795,1.894884 -2.53172,3.359348 -9.1827,2.781765 -38.22714,3.620463 -46.2937399,0.111343 -2.89833,-1.261952 2.53888,-3.011626 4.2494799,-3.380836 1.78353,-0.386139 2.80196,-0.315813 2.80196,-0.315813 C 10.12401,67.27029 -7.4964599,74.001356 4.4002901,75.932052 36.84185,81.190841 63.53692,73.563774 55.12324,69.766846 Z M 21.1254,45.065003 c 0,0 -14.7722799,3.509114 -5.23079,4.784742 4.02939,0.539163 12.05822,0.415442 19.54204,-0.212279 6.11441,-0.513767 12.25032,-1.610976 12.25032,-1.610976 0,0 -2.15406,0.923999 -3.71424,1.987999 C 28.96865,53.961184 -0.00937988,52.122953 8.3339601,48.08835 15.38735,44.67691 21.1254,45.065003 21.1254,45.065003 Z m 26.50036,14.811993 c 15.25087,-7.922694 8.19878,-15.536736 3.27665,-14.511156 -1.20336,0.250698 -1.74317,0.468837 -1.74317,0.468837 0,0 0.448,-0.702605 1.30232,-1.004744 9.73684,-3.421859 17.22391,10.094972 -3.14055,15.448831 0,-0.0013 0.23377,-0.212931 0.30475,-0.401768 z"
     id="path3"
     style="fill:#ffffff;stroke:#ffffff;stroke-width:0.651163" />
  <path
     fill="#ea2d2e"
     d="m 38.43264,0.32558339 c 0,0 8.44427,8.44948301 -8.01125,21.43822161 -13.19646,10.422507 -3.00902,16.363713 -0.005,23.154687 C 22.7125,37.968634 17.0617,31.84966 20.85212,26.155244 26.41825,17.798225 41.83843,13.74474 38.43221,0.32558339 Z"
     id="path4"
     style="fill:#ffffff;stroke:#ffffff;stroke-width:0.651163" />
  <path
     fill="#0074bd"
     d="m 22.62437,81.352334 c 14.63553,0.93572 37.11626,-0.52093 37.64826,-7.446694 0,0 -1.02298,2.625487 -12.09665,4.708557 -12.4932,2.351998 -27.90491,2.077858 -37.04268,0.569115 0,6.51e-4 1.8721,1.550418 11.49107,2.169022 z"
     id="path5"
     style="fill:#ffffff;stroke:#ffffff;stroke-width:0.651163" />
</svg>
