<?xml version="1.0" encoding="UTF-8" standalone="no"?>
<!-- Created with Inkscape (http://www.inkscape.org/) -->

<svg
   width="17.197916mm"
   height="17.197918mm"
   viewBox="0 0 17.197916 17.197918"
   version="1.1"
   id="svg1"
   xml:space="preserve"
   xmlns="http://www.w3.org/2000/svg"
   xmlns:svg="http://www.w3.org/2000/svg"><defs
     id="defs1" /><g
     id="layer1"
     transform="translate(211.8496,-2.5895061)"><path
       d="m -210.83397,2.589506 c -0.56266,0 -1.01563,0.4529729 -1.01563,1.0156287 V 18.771794 c 0,0.562656 0.45297,1.015629 1.01563,1.015629 h 15.16666 c 0.56265,0 1.01563,-0.452973 1.01563,-1.015629 V 3.6051347 c 0,-0.5626558 -0.45298,-1.0156287 -1.01563,-1.0156287 z m 12.12928,7.834662 c 0.52181,-0.0019 1.03822,0.123697 1.42094,0.356234 0.24479,0.1487 0.53541,0.434806 0.72441,0.713125 0.11876,0.174876 0.1345,0.216096 0.0963,0.252644 -0.0599,0.05731 -1.21023,0.79536 -1.21927,0.782272 -0.004,-0.0055 -0.0422,-0.06294 -0.0854,-0.127601 -0.12703,-0.190567 -0.31022,-0.370213 -0.45412,-0.445326 -0.16563,-0.08646 -0.6194,-0.120164 -0.8028,-0.05964 -0.49953,0.164857 -0.61719,0.843839 -0.20843,1.202734 0.13949,0.122477 0.47664,0.298835 0.97764,0.511456 1.34083,0.569035 1.93485,1.053144 2.18937,1.784254 0.11497,0.330266 0.14736,1.031078 0.064,1.385772 -0.20271,0.862854 -0.94777,1.482672 -1.98468,1.651076 -0.2725,0.04426 -0.91022,0.05992 -1.12525,0.02762 -0.73085,-0.109766 -1.21803,-0.305718 -1.68736,-0.678682 -0.25649,-0.203823 -0.58191,-0.584463 -0.70361,-0.823012 -0.0546,-0.107085 -0.0587,-0.137006 -0.0221,-0.160994 0.32001,-0.209586 1.28626,-0.738655 1.29596,-0.709583 0.0289,0.08683 0.34497,0.470083 0.46599,0.56512 0.35594,0.279536 0.61216,0.365978 1.08779,0.366994 0.44923,0.001 0.65102,-0.06376 0.87445,-0.280526 0.28787,-0.279292 0.31217,-0.676099 0.059,-0.964392 -0.17322,-0.197286 -0.37348,-0.311946 -1.14172,-0.653621 -0.93088,-0.414007 -1.21343,-0.581475 -1.55569,-0.922207 -0.47058,-0.468481 -0.6341,-0.883959 -0.63466,-1.612305 -2.5e-4,-0.391084 0.009,-0.464617 0.0928,-0.704137 0.26856,-0.770951 0.875,-1.258263 1.75743,-1.412144 0.17039,-0.02971 0.34493,-0.0445 0.51886,-0.04514 z m -3.73022,0.09441 -0.0106,3.048854 c -0.0119,3.420376 0.004,3.199147 -0.26668,3.766769 -0.24522,0.514659 -0.72119,0.89064 -1.32725,1.048497 -0.35243,0.09179 -1.03906,0.11482 -1.39725,0.04684 -0.72433,-0.137465 -1.28363,-0.512111 -1.67404,-1.121448 -0.0899,-0.140296 -0.16337,-0.270188 -0.16329,-0.288662 7e-5,-0.01847 0.23724,-0.177186 0.527,-0.352691 0.28976,-0.175506 0.58433,-0.353914 0.65461,-0.396451 l 0.12779,-0.07735 0.0926,0.157582 c 0.32411,0.551451 0.68318,0.749532 1.18351,0.652899 0.24957,-0.0482 0.4122,-0.163171 0.50897,-0.359711 l 0.0796,-0.161716 0.0168,-2.972687 0.0168,-2.972686 0.81573,-0.0091 z"
       style="fill:#ffffff;stroke-width:0.0457031;stroke-linecap:square;stroke-linejoin:bevel"
       id="path2" /></g></svg>
