<?xml version="1.0" encoding="UTF-8" standalone="no"?>
<svg
   viewBox="0 0 125.15527 64.999992"
   version="1.1"
   id="svg3"
   width="125.15527"
   height="64.999992"
   xmlns="http://www.w3.org/2000/svg"
   xmlns:svg="http://www.w3.org/2000/svg">
  <defs
     id="defs3" />
  <path
     fill="#00618A"
     d="M 8.515625e-4,59.205489 H 4.1468516 V 42.831287 l 6.4200004,14.274815 c 0.757,1.727958 1.793,2.338596 3.827,2.338596 2.034,0 3.031,-0.610638 3.788,-2.338596 l 6.419,-14.274815 v 16.374202 h 4.146 v -16.34695 c 0,-1.594725 -0.637,-2.366856 -1.954,-2.764527 -3.15,-0.983079 -5.263,-0.132221 -6.22,1.994417 l -6.299,14.088091 -6.1000004,-14.089101 c -0.917,-2.125628 -3.07,-2.976486 -6.22,-1.994416 -1.31600004,0.39868 -1.9540000375,1.169801 -1.9540000375,2.764526 v 16.34796 z M 32.195852,45.876406 h 4.146 v 9.021305 c -0.04,0.48952 0.157,1.640145 2.428,1.67648 1.159,0.01817 8.945,0 9.017,0 V 45.831997 h 4.156 c 0.02,0 0,14.649272 0,14.709832 0.02,3.613367 -4.483,4.397609 -6.56,4.458167 h -13.093 v -2.78976 c 0.02,0 13.084,0.003 13.116,-0.001 2.67,-0.281598 2.354,-1.607845 2.353,-2.053965 v -1.088047 h -8.812 c -4.1,-0.03735 -6.712,-1.82687 -6.746,-3.885883 0,-0.188742 0.09,-9.214084 0,-9.304922 z"
     id="path1"
     style="fill:#ffffff;stroke-width:1.00932" />
  <path
     fill="#E48E00"
     d="m 55.138852,59.205489 h 11.922 c 1.396,0 2.753,-0.291693 3.829,-0.796352 1.793,-0.823606 2.67,-1.939916 2.67,-3.403429 v -3.02998 c 0,-1.196044 -0.996,-2.313361 -2.95,-3.056221 -1.037,-0.39969 -2.313,-0.610638 -3.55,-0.610638 h -5.024 c -1.675,0 -2.472,-0.50466 -2.671,-1.620968 -0.04,-0.13323 -0.04,-0.239209 -0.04,-0.37244 v -1.887429 c 0,-0.105978 0,-0.212967 0.04,-0.345186 0.199,-0.850858 0.638,-1.090067 2.114,-1.223298 l 0.398,-0.02624 h 11.843 v -2.763519 h -11.643 c -1.674,0 -2.551,0.105978 -3.349,0.345187 -2.472,0.771121 -3.549,1.993408 -3.549,4.120046 v 2.41833 c 0,1.861187 2.114,3.455913 5.662,3.828352 0.4,0.02523 0.797,0.05349 1.196,0.05349 h 4.307 c 0.159,0 0.319,0 0.439,0.02523 1.316,0.105979 1.873,0.346196 2.273,0.823606 0.239,0.239207 0.318,0.479426 0.318,0.743869 v 2.41934 c 0,0.291692 -0.199,0.664132 -0.598,0.983077 -0.358,0.318946 -0.957,0.531913 -1.754,0.585407 l -0.439,0.02624 h -11.444 z m 44.29,-4.810419 c 0,2.843254 2.113998,4.437979 6.378998,4.757936 0.399,0.02624 0.797,0.05248 1.196,0.05248 h 10.806 v -2.763518 h -10.885 c -2.432,0 -3.349,-0.611649 -3.349,-2.074153 V 40.067767 h -4.145998 v 14.3273 z m -23.222,0.143323 v -9.856012 c 0,-2.503114 1.758,-4.022142 5.234,-4.501568 0.359,-0.05349 0.76,-0.07974 1.118,-0.07974 h 7.872 c 0.4,0 0.759,0.02624 1.158,0.07974 3.476,0.479426 5.235,1.997445 5.235,4.501568 v 9.856012 c 0,2.03277 -0.747,3.118799 -2.468,3.827342 l 4.086,3.687047 h -4.815 l -3.305,-2.98355 -3.327,0.210948 h -4.436 c -0.759,0 -1.557,-0.105981 -2.436,-0.346198 -2.637,-0.718636 -3.916,-2.104433 -3.916,-4.395589 z m 4.475,-0.23921 c 0,0.133231 0.04,0.267471 0.08,0.426944 0.239,1.145578 1.319,1.784478 2.956,1.784478 h 3.767 l -3.46,-3.123847 h 4.815 l 3.017,2.725164 c 0.557,-0.297749 0.923,-0.749924 1.051,-1.332301 0.04,-0.133231 0.04,-0.266461 0.04,-0.399692 v -9.45531 c 0,-0.105979 0,-0.240219 -0.04,-0.37345 -0.24,-1.065841 -1.319,-1.677489 -2.917,-1.677489 h -6.274 c -1.837,0 -3.036,0.799382 -3.036,2.050939 v 9.374564 z"
     id="path2"
     style="fill:#ffffff;stroke-width:1.00932" />
  <path
     fill="#00618A"
     d="m 121.45785,35.480408 c -2.549,-0.06964 -4.496,0.167548 -6.161,0.869025 -0.474,0.199845 -1.228,0.204892 -1.304,0.797363 0.259,0.273526 0.299,0.680282 0.506,1.015376 0.398,0.642937 1.069,1.504896 1.668,1.956064 0.653,0.493556 1.327,1.022441 2.029,1.450392 1.247,0.761027 2.64,1.195035 3.842,1.956062 0.707,0.450158 1.41,1.015378 2.101,1.523065 0.342,0.249302 0.571,0.63991 1.016,0.796354 v -0.07166 c -0.233,-0.296739 -0.294,-0.704504 -0.508,-1.015375 l -0.943,-0.942705 c -0.921,-1.223296 -2.09,-2.296204 -3.334,-3.188443 -0.992,-0.71157 -3.21,-1.673453 -3.624,-2.827105 l -0.07,-0.07166 c 0.703,-0.07974 1.526,-0.334085 2.174,-0.507688 1.091,-0.292702 2.065,-0.217003 3.19,-0.507688 l 1.522,-0.436026 v -0.288666 c -0.568,-0.583387 -0.975,-1.356527 -1.595,-1.884401 -1.622,-1.381759 -3.394,-2.762509 -5.218,-3.915153 -1.011,-0.637891 -2.262,-1.052722 -3.335,-1.593718 -0.359,-0.182685 -0.993,-0.276553 -1.232,-0.580358 -0.564,-0.717627 -0.87,-1.627024 -1.305,-2.46375 -0.909,-1.751171 -1.803,-3.664842 -2.609,-5.508871 -0.549,-1.256603 -0.909,-2.496048 -1.594,-3.623459 -3.291,-5.410967 -6.833998,-8.6771271 -12.321998,-11.8867641 -1.168,-0.683311 -2.574,-0.95179 -4.058,-1.304042 l -2.392,-0.145343 c -0.486,-0.202872 -0.992,-0.798371 -1.45,-1.087038 -1.819,-1.14860596 -6.482,-3.646675 -7.828,-0.361336 -0.85,2.073143 1.272,4.095822 2.03,5.146524 0.532,0.736804 1.214,1.562428 1.594,2.391079 0.251,0.545033 0.293,1.0910761 0.508,1.6673971 0.526,1.419106 0.985,2.964374 1.667,4.275481 0.344,0.664133 0.724,1.363593 1.159,1.957072 0.267,0.363355 0.725,0.524847 0.797,1.087039 -0.448,0.625777 -0.474,1.598762 -0.725,2.391078 -1.133,3.571984 -0.706,8.011985 0.943,10.655394 0.505,0.812504 1.696,2.552571 3.333,1.884402 1.433,-0.583389 1.114,-2.391081 1.523,-3.986815 0.09,-0.360327 0.04,-0.626789 0.217,-0.869025 v 0.07267 l 1.306,2.609093 c 0.965,1.555362 2.678,3.179358 4.131,4.276489 0.753,0.568247 1.346,1.552336 2.319,1.884402 v -0.07368 h -0.07 c -0.189,-0.293713 -0.483,-0.414831 -0.725,-0.652022 -0.568,-0.556135 -1.198,-1.24651 -1.667,-1.8844 -1.321,-1.792553 -2.488,-3.755681 -3.551,-5.798545 -0.508,-0.975004 -0.949,-2.050939 -1.377,-3.04411 -0.166,-0.382532 -0.164,-0.961883 -0.507,-1.1587 -0.47,0.726711 -1.16,1.315145 -1.523,2.174076 -0.579,1.372675 -0.654,3.047138 -0.869,4.783169 l -0.145,0.07166 c -1.011,-0.243245 -1.365,-1.282846 -1.74,-2.174076 -0.949,-2.253812 -1.126,-5.884337 -0.29,-8.479299 0.216,-0.672208 1.192,-2.786733 0.796,-3.407465 -0.188,-0.618712 -0.811,-0.976013 -1.158,-1.450393 -0.431,-0.584396 -0.862,-1.353499 -1.16,-2.029744 -0.777,-1.757226 -1.14,-3.730447 -1.956,-5.5078601 -0.392,-0.849848 -1.052,-1.708779 -1.595,-2.463751 -0.6,-0.837735 -1.274,-1.453421 -1.74,-2.464759 -0.165,-0.359318 -0.391,-0.935641 -0.145,-1.305053 0.08,-0.249302 0.189,-0.353262 0.436,-0.435015 0.42,-0.323993 1.59,0.107997 2.028,0.289673 1.163,0.483466 2.133,0.942705 3.118,1.594727 0.473,0.313899 0.95,0.919491 1.522,1.087037 h 0.652 c 1.021,0.234163 2.164,0.07166 3.117,0.361337 1.686,0.512735 3.196,1.309089 4.566,2.175085 4.178,2.638364 7.591998,6.3930351 9.929998,10.8723991 0.375,0.721664 0.539,1.409011 0.869,2.174075 0.668,1.542241 1.51,3.129902 2.174,4.638835 0.663,1.504897 1.31,3.023924 2.248,4.276491 0.492,0.658076 2.396,1.011338 3.261,1.376712 0.607,0.256368 1.6,0.523838 2.174,0.869025 1.097,0.662114 2.161,1.450393 3.189,2.175085 0.514,0.365375 2.096,1.15971 2.175,1.814758 z M 89.058852,7.8664149 c -0.531,-0.01009 -0.907,0.05854 -1.305,0.145343 v 0.07166 h 0.07 c 0.253,0.521817 0.7,0.856912 1.014,1.305051 l 0.726,1.5220541 0.07,-0.07166 c 0.449,-0.315918 0.654,-0.821587 0.652,-1.5947271 -0.181,-0.189751 -0.207,-0.426942 -0.363,-0.65202 -0.205,-0.302796 -0.607,-0.472363 -0.869,-0.725702 z"
     id="path3"
     style="fill:#ffffff;stroke-width:1.00932" />
</svg>
