<svg width="360" height="116" viewBox="0 0 360 116" fill="none" xmlns="http://www.w3.org/2000/svg">
<mask id="path-1-outside-1_14_15" maskUnits="userSpaceOnUse" x="-1.00146" y="-1.00012" width="362" height="118" fill="black">
<rect fill="white" x="-1.00146" y="-1.00012" width="362" height="118"/>
<path d="M26.4385 115.6C17.9052 115.6 11.4519 113.2 7.07854 108.4C2.7052 103.493 0.518535 96.5065 0.518535 87.4399V81.0399H17.1585V88.7199C17.1585 95.9732 20.1985 99.5999 26.2785 99.5999C29.2652 99.5999 31.5052 98.7465 32.9985 97.0399C34.5985 95.2265 35.3985 92.3465 35.3985 88.3999C35.3985 83.7065 34.3319 79.5999 32.1985 76.0799C30.0652 72.4532 26.1185 68.1332 20.3585 63.1199C13.1052 56.7199 8.03854 50.9599 5.15854 45.8399C2.27854 40.6132 0.838535 34.7465 0.838535 28.2399C0.838535 19.3865 3.07854 12.5599 7.55854 7.75987C12.0385 2.85321 18.5452 0.399872 27.0785 0.399872C35.5052 0.399872 41.8519 2.85321 46.1185 7.75987C50.4919 12.5599 52.6785 19.4932 52.6785 28.5599V33.1999H36.0385V27.4399C36.0385 23.5999 35.2919 20.8265 33.7985 19.1199C32.3052 17.3065 30.1185 16.3999 27.2385 16.3999C21.3719 16.3999 18.4385 19.9732 18.4385 27.1199C18.4385 31.1732 19.5052 34.9599 21.6385 38.4799C23.8785 41.9999 27.8785 46.2665 33.6385 51.2799C40.9985 57.6799 46.0652 63.4932 48.8385 68.7199C51.6119 73.9465 52.9985 80.0799 52.9985 87.1199C52.9985 96.2932 50.7052 103.333 46.1185 108.24C41.6385 113.147 35.0785 115.6 26.4385 115.6ZM71.0898 1.99987H88.6898V49.1999L111.09 1.99987H128.69L107.73 43.1199L129.01 114H110.61L95.7298 64.0799L88.6898 78.3199V114H71.0898V1.99987ZM145.34 1.99987H162.94V114H145.34V1.99987ZM184.121 1.99987H201.721V97.9999H230.681V114H184.121V1.99987ZM247.121 1.99987H264.721V97.9999H293.681V114H247.121V1.99987ZM333.001 115.6C324.468 115.6 318.014 113.2 313.641 108.4C309.268 103.493 307.081 96.5065 307.081 87.4399V81.0399H323.721V88.7199C323.721 95.9732 326.761 99.5999 332.841 99.5999C335.828 99.5999 338.068 98.7465 339.561 97.0399C341.161 95.2265 341.961 92.3465 341.961 88.3999C341.961 83.7065 340.894 79.5999 338.761 76.0799C336.628 72.4532 332.681 68.1332 326.921 63.1199C319.668 56.7199 314.601 50.9599 311.721 45.8399C308.841 40.6132 307.401 34.7465 307.401 28.2399C307.401 19.3865 309.641 12.5599 314.121 7.75987C318.601 2.85321 325.108 0.399872 333.641 0.399872C342.068 0.399872 348.414 2.85321 352.681 7.75987C357.054 12.5599 359.241 19.4932 359.241 28.5599V33.1999H342.601V27.4399C342.601 23.5999 341.854 20.8265 340.361 19.1199C338.868 17.3065 336.681 16.3999 333.801 16.3999C327.934 16.3999 325.001 19.9732 325.001 27.1199C325.001 31.1732 326.068 34.9599 328.201 38.4799C330.441 41.9999 334.441 46.2665 340.201 51.2799C347.561 57.6799 352.628 63.4932 355.401 68.7199C358.174 73.9465 359.561 80.0799 359.561 87.1199C359.561 96.2932 357.268 103.333 352.681 108.24C348.201 113.147 341.641 115.6 333.001 115.6Z"/>
</mask>
<path d="M7.07854 108.4L6.33198 109.065L6.33934 109.073L7.07854 108.4ZM0.518535 81.0399V80.0399H-0.481465V81.0399H0.518535ZM17.1585 81.0399H18.1585V80.0399H17.1585V81.0399ZM32.9985 97.0399L32.2487 96.3783L32.246 96.3814L32.9985 97.0399ZM32.1985 76.0799L31.3365 76.5869L31.3433 76.5982L32.1985 76.0799ZM20.3585 63.1199L19.6969 63.8697L19.702 63.8742L20.3585 63.1199ZM5.15854 45.8399L4.28266 46.3225L4.28696 46.3301L5.15854 45.8399ZM7.55853 7.75987L8.28963 8.44223L8.29702 8.43414L7.55853 7.75987ZM46.1185 7.75987L45.3639 8.41605L45.3715 8.4248L45.3793 8.43336L46.1185 7.75987ZM52.6785 33.1999V34.1999H53.6785V33.1999H52.6785ZM36.0385 33.1999H35.0385V34.1999H36.0385V33.1999ZM33.7985 19.1199L33.0266 19.7556L33.0361 19.7671L33.046 19.7784L33.7985 19.1199ZM21.6385 38.4799L20.7833 38.9982L20.789 39.0075L20.7949 39.0167L21.6385 38.4799ZM33.6385 51.2799L32.982 52.0342L32.9824 52.0345L33.6385 51.2799ZM48.8385 68.7199L47.9552 69.1886L48.8385 68.7199ZM46.1185 108.24L45.388 107.557L45.3801 107.566L46.1185 108.24ZM26.4385 114.6C18.0934 114.6 11.9468 112.258 7.81773 107.726L6.33934 109.073C10.9569 114.141 17.717 116.6 26.4385 116.6V114.6ZM7.82505 107.735C3.66796 103.07 1.51854 96.3546 1.51854 87.4399H-0.481465C-0.481465 96.6585 1.74244 103.916 6.33202 109.065L7.82505 107.735ZM1.51854 87.4399V81.0399H-0.481465V87.4399H1.51854ZM0.518535 82.0399H17.1585V80.0399H0.518535V82.0399ZM16.1585 81.0399V88.7199H18.1585V81.0399H16.1585ZM16.1585 88.7199C16.1585 92.4619 16.939 95.4547 18.6722 97.5223C20.4336 99.6237 23.0335 100.6 26.2785 100.6V98.5999C23.4436 98.5999 21.4834 97.7627 20.2049 96.2375C18.898 94.6784 18.1585 92.2312 18.1585 88.7199H16.1585ZM26.2785 100.6C29.4566 100.6 32.0122 99.6857 33.7511 97.6984L32.246 96.3814C30.9982 97.8074 29.0738 98.5999 26.2785 98.5999V100.6ZM33.7484 97.7015C35.5846 95.6204 36.3985 92.4459 36.3985 88.3999H34.3985C34.3985 92.2472 33.6124 94.8327 32.2487 96.3783L33.7484 97.7015ZM36.3985 88.3999C36.3985 83.55 35.2945 79.2588 33.0537 75.5616L31.3433 76.5982C33.3692 79.9409 34.3985 83.8631 34.3985 88.3999H36.3985ZM33.0605 75.5729C30.8449 71.8063 26.8015 67.4019 21.0151 62.3656L19.702 63.8742C25.4356 68.8645 29.2855 73.1001 31.3366 76.5869L33.0605 75.5729ZM21.0202 62.37C13.8038 56.0027 8.83111 50.3292 6.03011 45.3496L4.28696 46.3301C7.24596 51.5906 12.4066 57.4371 19.6969 63.8697L21.0202 62.37ZM6.03437 45.3573C3.24305 40.2915 1.83854 34.5934 1.83854 28.2399H-0.161465C-0.161465 34.8997 1.31402 40.9349 4.2827 46.3225L6.03437 45.3573ZM1.83854 28.2399C1.83854 19.55 4.03527 13.0004 8.28959 8.44219L6.82748 7.07755C2.1218 12.1194 -0.161465 19.2231 -0.161465 28.2399H1.83854ZM8.29702 8.43414C12.537 3.79031 18.7413 1.39987 27.0785 1.39987V-0.600128C18.3491 -0.600128 11.54 1.9161 6.82005 7.0856L8.29702 8.43414ZM27.0785 1.39987C35.3072 1.39987 41.3399 3.78845 45.3639 8.41605L46.8731 7.10369C42.3638 1.91796 35.7032 -0.600128 27.0785 -0.600128V1.39987ZM45.3793 8.43336C49.5284 12.9872 51.6785 19.6434 51.6785 28.5599H53.6785C53.6785 19.343 51.4553 12.1325 46.8577 7.08638L45.3793 8.43336ZM51.6785 28.5599V33.1999H53.6785V28.5599H51.6785ZM52.6785 32.1999H36.0385V34.1999H52.6785V32.1999ZM37.0385 33.1999V27.4399H35.0385V33.1999H37.0385ZM37.0385 27.4399C37.0385 23.5124 36.2827 20.4403 34.5511 18.4614L33.046 19.7784C34.3011 21.2128 35.0385 23.6874 35.0385 27.4399H37.0385ZM34.5705 18.4842C32.8446 16.3885 30.3432 15.3999 27.2385 15.3999V17.3999C29.8939 17.3999 31.7658 18.2246 33.0266 19.7556L34.5705 18.4842ZM27.2385 15.3999C24.0933 15.3999 21.5715 16.3673 19.8656 18.4454C18.1907 20.4857 17.4385 23.4351 17.4385 27.1199H19.4385C19.4385 23.658 20.153 21.2474 21.4115 19.7144C22.6389 18.2191 24.5171 17.3999 27.2385 17.3999V15.3999ZM17.4385 27.1199C17.4385 31.3589 18.5568 35.3244 20.7833 38.9982L22.4937 37.9616C20.4536 34.5953 19.4385 30.9875 19.4385 27.1199H17.4385ZM20.7949 39.0167C23.1127 42.659 27.199 47.0008 32.982 52.0342L34.2951 50.5256C28.5581 45.5323 24.6444 41.3407 22.4822 37.943L20.7949 39.0167ZM32.9824 52.0345C40.3019 58.3993 45.2647 64.1181 47.9552 69.1886L49.7219 68.2512C46.8657 62.8683 41.6952 56.9605 34.2947 50.5253L32.9824 52.0345ZM47.9552 69.1886C50.6386 74.2459 51.9985 80.2124 51.9985 87.1199H53.9985C53.9985 79.9474 52.5851 73.6472 49.7219 68.2512L47.9552 69.1886ZM51.9985 87.1199C51.9985 96.1337 49.7465 102.894 45.388 107.557L46.8491 108.923C51.6639 103.772 53.9985 96.4527 53.9985 87.1199H51.9985ZM45.3801 107.566C41.1423 112.207 34.8868 114.6 26.4385 114.6V116.6C35.2703 116.6 42.1347 114.086 46.857 108.914L45.3801 107.566ZM71.0898 1.99987V0.99987H70.0898V1.99987H71.0898ZM88.6898 1.99987H89.6898V0.99987H88.6898V1.99987ZM88.6898 49.1999H87.6898L89.5932 49.6286L88.6898 49.1999ZM111.09 1.99987V0.99987H110.457L110.186 1.57113L111.09 1.99987ZM128.69 1.99987L129.581 2.454L130.322 0.99987H128.69V1.99987ZM107.73 43.1199L106.839 42.6657L106.657 43.0232L106.772 43.4074L107.73 43.1199ZM129.01 114V115H130.354L129.968 113.712L129.01 114ZM110.61 114L109.651 114.286L109.864 115H110.61V114ZM95.7298 64.0799L96.6881 63.7942L95.9612 61.3554L94.8334 63.6367L95.7298 64.0799ZM88.6898 78.3199L87.7934 77.8767L87.6898 78.0862V78.3199H88.6898ZM88.6898 114V115H89.6898V114H88.6898ZM71.0898 114H70.0898V115H71.0898V114ZM71.0898 2.99987H88.6898V0.99987H71.0898V2.99987ZM87.6898 1.99987V49.1999H89.6898V1.99987H87.6898ZM89.5932 49.6286L111.993 2.42862L110.186 1.57113L87.7864 48.7711L89.5932 49.6286ZM111.09 2.99987H128.69V0.99987H111.09V2.99987ZM127.799 1.54574L106.839 42.6657L108.621 43.574L129.581 2.454L127.799 1.54574ZM106.772 43.4074L128.052 114.287L129.968 113.712L108.688 42.8323L106.772 43.4074ZM129.01 113H110.61V115H129.01V113ZM111.568 113.714L96.6881 63.7942L94.7715 64.3655L109.651 114.286L111.568 113.714ZM94.8334 63.6367L87.7934 77.8767L89.5862 78.7631L96.6262 64.5231L94.8334 63.6367ZM87.6898 78.3199V114H89.6898V78.3199H87.6898ZM88.6898 113H71.0898V115H88.6898V113ZM72.0898 114V1.99987H70.0898V114H72.0898ZM145.34 1.99987V0.99987H144.34V1.99987H145.34ZM162.94 1.99987H163.94V0.99987H162.94V1.99987ZM162.94 114V115H163.94V114H162.94ZM145.34 114H144.34V115H145.34V114ZM145.34 2.99987H162.94V0.99987H145.34V2.99987ZM161.94 1.99987V114H163.94V1.99987H161.94ZM162.94 113H145.34V115H162.94V113ZM146.34 114V1.99987H144.34V114H146.34ZM184.121 1.99987V0.99987H183.121V1.99987H184.121ZM201.721 1.99987H202.721V0.99987H201.721V1.99987ZM201.721 97.9999H200.721V98.9999H201.721V97.9999ZM230.681 97.9999H231.681V96.9999H230.681V97.9999ZM230.681 114V115H231.681V114H230.681ZM184.121 114H183.121V115H184.121V114ZM184.121 2.99987H201.721V0.99987H184.121V2.99987ZM200.721 1.99987V97.9999H202.721V1.99987H200.721ZM201.721 98.9999H230.681V96.9999H201.721V98.9999ZM229.681 97.9999V114H231.681V97.9999H229.681ZM230.681 113H184.121V115H230.681V113ZM185.121 114V1.99987H183.121V114H185.121ZM247.121 1.99987V0.99987H246.121V1.99987H247.121ZM264.721 1.99987H265.721V0.99987H264.721V1.99987ZM264.721 97.9999H263.721V98.9999H264.721V97.9999ZM293.681 97.9999H294.681V96.9999H293.681V97.9999ZM293.681 114V115H294.681V114H293.681ZM247.121 114H246.121V115H247.121V114ZM247.121 2.99987H264.721V0.99987H247.121V2.99987ZM263.721 1.99987V97.9999H265.721V1.99987H263.721ZM264.721 98.9999H293.681V96.9999H264.721V98.9999ZM292.681 97.9999V114H294.681V97.9999H292.681ZM293.681 113H247.121V115H293.681V113ZM248.121 114V1.99987H246.121V114H248.121ZM313.641 108.4L312.894 109.065L312.902 109.073L313.641 108.4ZM307.081 81.0399V80.0399H306.081V81.0399H307.081ZM323.721 81.0399H324.721V80.0399H323.721V81.0399ZM339.561 97.0399L338.811 96.3783L338.808 96.3814L339.561 97.0399ZM338.761 76.0799L337.899 76.5869L337.906 76.5982L338.761 76.0799ZM326.921 63.1199L326.259 63.8697L326.265 63.8742L326.921 63.1199ZM311.721 45.8399L310.845 46.3225L310.849 46.3301L311.721 45.8399ZM314.121 7.75987L314.852 8.44223L314.86 8.43414L314.121 7.75987ZM352.681 7.75987L351.926 8.41605L351.934 8.4248L351.942 8.43336L352.681 7.75987ZM359.241 33.1999V34.1999H360.241V33.1999H359.241ZM342.601 33.1999H341.601V34.1999H342.601V33.1999ZM340.361 19.1199L339.589 19.7556L339.599 19.7671L339.608 19.7784L340.361 19.1199ZM328.201 38.4799L327.346 38.9982L327.352 39.0075L327.357 39.0167L328.201 38.4799ZM340.201 51.2799L339.545 52.0342L339.545 52.0345L340.201 51.2799ZM355.401 68.7199L354.518 69.1886L355.401 68.7199ZM352.681 108.24L351.95 107.557L351.943 107.566L352.681 108.24ZM333.001 114.6C324.656 114.6 318.509 112.258 314.38 107.726L312.902 109.073C317.519 114.141 324.28 116.6 333.001 116.6V114.6ZM314.388 107.735C310.23 103.07 308.081 96.3546 308.081 87.4399H306.081C306.081 96.6585 308.305 103.916 312.895 109.065L314.388 107.735ZM308.081 87.4399V81.0399H306.081V87.4399H308.081ZM307.081 82.0399H323.721V80.0399H307.081V82.0399ZM322.721 81.0399V88.7199H324.721V81.0399H322.721ZM322.721 88.7199C322.721 92.4619 323.502 95.4547 325.235 97.5223C326.996 99.6237 329.596 100.6 332.841 100.6V98.5999C330.006 98.5999 328.046 97.7627 326.767 96.2375C325.461 94.6784 324.721 92.2312 324.721 88.7199H322.721ZM332.841 100.6C336.019 100.6 338.575 99.6857 340.314 97.6984L338.808 96.3814C337.561 97.8074 335.636 98.5999 332.841 98.5999V100.6ZM340.311 97.7015C342.147 95.6204 342.961 92.4459 342.961 88.3999H340.961C340.961 92.2472 340.175 94.8327 338.811 96.3783L340.311 97.7015ZM342.961 88.3999C342.961 83.55 341.857 79.2588 339.616 75.5616L337.906 76.5982C339.932 79.9409 340.961 83.8631 340.961 88.3999H342.961ZM339.623 75.5729C337.407 71.8063 333.364 67.4019 327.578 62.3656L326.265 63.8742C331.998 68.8645 335.848 73.1001 337.899 76.5869L339.623 75.5729ZM327.583 62.37C320.366 56.0027 315.394 50.3292 312.593 45.3496L310.849 46.3301C313.808 51.5906 318.969 57.4371 326.259 63.8697L327.583 62.37ZM312.597 45.3573C309.806 40.2915 308.401 34.5934 308.401 28.2399H306.401C306.401 34.8997 307.877 40.9349 310.845 46.3225L312.597 45.3573ZM308.401 28.2399C308.401 19.55 310.598 13.0004 314.852 8.44219L313.39 7.07755C308.684 12.1194 306.401 19.2231 306.401 28.2399H308.401ZM314.86 8.43414C319.1 3.79031 325.304 1.39987 333.641 1.39987V-0.600128C324.912 -0.600128 318.103 1.9161 313.383 7.0856L314.86 8.43414ZM333.641 1.39987C341.87 1.39987 347.902 3.78845 351.926 8.41605L353.436 7.10369C348.926 1.91796 342.266 -0.600128 333.641 -0.600128V1.39987ZM351.942 8.43336C356.091 12.9872 358.241 19.6434 358.241 28.5599H360.241C360.241 19.343 358.018 12.1325 353.42 7.08638L351.942 8.43336ZM358.241 28.5599V33.1999H360.241V28.5599H358.241ZM359.241 32.1999H342.601V34.1999H359.241V32.1999ZM343.601 33.1999V27.4399H341.601V33.1999H343.601ZM343.601 27.4399C343.601 23.5124 342.845 20.4403 341.114 18.4614L339.608 19.7784C340.864 21.2128 341.601 23.6874 341.601 27.4399H343.601ZM341.133 18.4842C339.407 16.3885 336.906 15.3999 333.801 15.3999V17.3999C336.456 17.3999 338.328 18.2246 339.589 19.7556L341.133 18.4842ZM333.801 15.3999C330.656 15.3999 328.134 16.3673 326.428 18.4454C324.753 20.4857 324.001 23.4351 324.001 27.1199H326.001C326.001 23.658 326.716 21.2474 327.974 19.7144C329.201 18.2191 331.08 17.3999 333.801 17.3999V15.3999ZM324.001 27.1199C324.001 31.3589 325.119 35.3244 327.346 38.9982L329.056 37.9616C327.016 34.5953 326.001 30.9875 326.001 27.1199H324.001ZM327.357 39.0167C329.675 42.659 333.762 47.0008 339.545 52.0342L340.858 50.5256C335.121 45.5323 331.207 41.3407 329.045 37.943L327.357 39.0167ZM339.545 52.0345C346.864 58.3993 351.827 64.1181 354.518 69.1886L356.284 68.2512C353.428 62.8683 348.258 56.9605 340.857 50.5253L339.545 52.0345ZM354.518 69.1886C357.201 74.2459 358.561 80.2124 358.561 87.1199H360.561C360.561 79.9474 359.148 73.6472 356.284 68.2512L354.518 69.1886ZM358.561 87.1199C358.561 96.1337 356.309 102.894 351.951 107.557L353.412 108.923C358.226 103.772 360.561 96.4527 360.561 87.1199H358.561ZM351.943 107.566C347.705 112.207 341.449 114.6 333.001 114.6V116.6C341.833 116.6 348.697 114.086 353.42 108.914L351.943 107.566Z" fill="white" fill-opacity="0.3" mask="url(#path-1-outside-1_14_15)"/>
</svg>
